<svg xmlns="http://www.w3.org/2000/svg" viewBox="0 0 500 500"><path d="M353.91 231.09a42 42 0 01-25.76-19.39 37.35 37.35 0 01-2.7-30.79c2.81-7.83 8.24-14.72 10.56-22.69 2.64-9.05 1.07-18.65-.56-27.9s-3.29-18.82-.82-27.91 10.26-17.62 20.28-18.27c9.29-.6 17.87 5.83 21.75 13.74s3.9 17 3 25.63-2.67 17.3-2.11 26c1.12 17.57 11.66 34.12 10.42 51.69-.65 9.15-4.44 15-10.92 21.88-5.6 5.93-14.89 9.83-23.13 8" fill="#f5f5f5"/><path d="M357.2 318.17c-.1 0-.18-38.93-.18-87s.08-87 .18-87 .17 38.92.17 87-.08 87-.17 87zm-.51-117.47a13.4 13.4 0 01-1.6-1.41c-1-.91-2.26-2.19-3.63-3.65s-2.63-2.76-3.54-3.7a12.89 12.89 0 01-1.42-1.58 13 13 0 011.6 1.42c1 .9 2.26 2.18 3.63 3.64s2.63 2.76 3.54 3.71a12.46 12.46 0 011.42 1.57zm1.05-36.43a11.73 11.73 0 003.55-1.48 9.73 9.73 0 002.85-2.87 9.57 9.57 0 001.55-4.54v-.16l.2.18a7.58 7.58 0 00-4.28 2.35 16.25 16.25 0 00-2.39 3.2c-.57 1-1 1.81-1.24 2.38a6.07 6.07 0 01-.45.88 5.55 5.55 0 01.32-.93 21.54 21.54 0 011.15-2.44 15.21 15.21 0 012.37-3.29 7.79 7.79 0 014.47-2.48h.22v.36a9.6 9.6 0 01-1.62 4.68 9.73 9.73 0 01-3 2.9 8.72 8.72 0 01-2.64 1.12 5.25 5.25 0 01-.77.15z" fill="#e0e0e0"/><path d="M357.74 164.27a23 23 0 012.44-3 23.53 23.53 0 012.7-2.82 21.46 21.46 0 01-2.43 3 21.48 21.48 0 01-2.71 2.82z" fill="#e0e0e0"/><path d="M443.71 252.63A31.78 31.78 0 01424.24 238a28.23 28.23 0 01-2-23.26c2.13-5.92 6.23-11.13 8-17.15 2-6.84.81-14.09-.42-21.08s-2.49-14.22-.62-21.09 7.76-13.31 15.32-13.8c7-.46 13.51 4.4 16.43 10.38s2.95 12.83 2.27 19.37-2 13.07-1.6 19.63c.85 13.28 8.81 25.78 7.88 39.06-.49 6.91-3.36 11.33-8.26 16.53-4.22 4.49-11.25 7.43-17.47 6.06" fill="#f5f5f5"/><path d="M446.19 318.43c-.07 0-.13-29.42-.13-65.7s.06-65.71.13-65.71.13 29.41.13 65.71-.06 65.7-.13 65.7zm-.38-88.76a9.21 9.21 0 01-1.21-1.07c-.73-.68-1.71-1.65-2.74-2.75s-2-2.09-2.68-2.8a11.16 11.16 0 01-1.07-1.19 10.06 10.06 0 011.21 1.07c.72.68 1.7 1.65 2.74 2.75s2 2.09 2.67 2.8a10.74 10.74 0 011.08 1.19zm.79-27.53a9.1 9.1 0 002.69-1.12 7.36 7.36 0 002.15-2.16 7.2 7.2 0 001.17-3.44v-.11l.15.13a5.75 5.75 0 00-3.23 1.78 11.88 11.88 0 00-1.8 2.42c-.44.74-.74 1.36-.95 1.79a3.82 3.82 0 01-.33.67 2.85 2.85 0 01.24-.7 17.94 17.94 0 01.87-1.85 11.75 11.75 0 011.79-2.49 6 6 0 013.37-1.87h.17v.27a7.39 7.39 0 01-1.23 3.54 7.51 7.51 0 01-2.26 2.19 7 7 0 01-2 .85c-.25.07-.46.08-.59.11a.49.49 0 01-.21-.01z" fill="#e0e0e0"/><path d="M446.6 202.14a17.83 17.83 0 011.84-2.29 17.5 17.5 0 012.05-2.13 16.15 16.15 0 01-1.84 2.29 16.64 16.64 0 01-2.05 2.13z" fill="#e0e0e0"/><path d="M96.53 235.59a38.65 38.65 0 01-23.71-17.84 34.33 34.33 0 01-2.49-28.35c2.59-7.21 7.58-13.56 9.72-20.9 2.43-8.32 1-17.16-.52-25.68s-3-17.33-.75-25.69 9.45-16.23 18.67-16.82c8.55-.55 16.45 5.37 20 12.65s3.59 15.63 2.76 23.6-2.46 15.92-2 23.92c1 16.18 10.74 31.41 9.6 47.58-.6 8.43-4.09 13.82-10.06 20.15-5.15 5.46-13.71 9-21.29 7.38" fill="#f5f5f5"/><path d="M99.56 315.76c-.09 0-.17-35.84-.17-80s.08-80.06.17-80.06.16 35.84.16 80.06-.07 80-.16 80zm-.47-108.14a13.89 13.89 0 01-1.48-1.31c-.88-.83-2.07-2-3.33-3.35s-2.42-2.54-3.26-3.41a11.12 11.12 0 01-1.31-1.45 12.48 12.48 0 011.47 1.3c.89.84 2.08 2 3.34 3.36s2.42 2.54 3.26 3.41a11.12 11.12 0 011.31 1.45zm.97-33.54a11.34 11.34 0 003.27-1.36 9 9 0 002.62-2.64 8.87 8.87 0 001.43-4.19v-.14l.19.16a7 7 0 00-3.94 2.16 15.28 15.28 0 00-2.2 3c-.53.91-.9 1.67-1.15 2.19a5.45 5.45 0 01-.41.82 4.12 4.12 0 01.3-.86 19.21 19.21 0 011.06-2.25 14.15 14.15 0 012.18-3 7.18 7.18 0 014.11-2.28h.2v.33a8.81 8.81 0 01-1.49 4.31 9 9 0 01-2.75 2.67 8.42 8.42 0 01-2.44 1 7.08 7.08 0 01-.71.13z" fill="#e0e0e0"/><path d="M100.06 174.08a19.58 19.58 0 012.24-2.79 21.23 21.23 0 012.49-2.6 19.58 19.58 0 01-2.24 2.79 21.23 21.23 0 01-2.49 2.6z" fill="#e0e0e0"/><path d="M391.85 218.71a46.46 46.46 0 01-28.5-21.44 41.26 41.26 0 01-3-34.06c3.11-8.66 9.1-16.29 11.68-25.1 2.91-10 1.18-20.63-.63-30.86s-3.63-20.82-.9-30.87 11.37-19.5 22.5-20.21c10.28-.66 19.77 6.45 24.06 15.2s4.31 18.77 3.31 28.35-2.95 19.14-2.34 28.74c1.24 19.44 12.9 37.74 11.53 57.18-.71 10.12-4.91 16.59-12.08 24.21-6.19 6.56-16.47 10.87-25.58 8.86" fill="#ebebeb"/><path d="M395.48 315c-.11 0-.19-43.07-.19-96.18s.08-96.19.19-96.19.2 43.05.2 96.19-.09 96.18-.2 96.18zm-.56-129.9a15.53 15.53 0 01-1.77-1.57c-1.06-1-2.5-2.41-4-4s-2.91-3.05-3.92-4.09a14.58 14.58 0 01-1.57-1.75 16.9 16.9 0 011.77 1.57c1.06 1 2.5 2.41 4 4s2.91 3.05 3.92 4.1a15.08 15.08 0 011.57 1.74zm1.16-40.3a13 13 0 003.93-1.63 10.8 10.8 0 003.15-3.17 10.56 10.56 0 001.72-5v-.17l.22.19a8.48 8.48 0 00-4.74 2.6 18.38 18.38 0 00-2.64 3.54c-.63 1.09-1.07 2-1.38 2.63a5.33 5.33 0 01-.49 1 5.77 5.77 0 01.36-1 23.13 23.13 0 011.27-2.7 17 17 0 012.62-3.64 8.63 8.63 0 014.94-2.74h.25v.29a10.74 10.74 0 01-1.8 5.18 10.85 10.85 0 01-3.3 3.21 10 10 0 01-2.93 1.24c-.36.1-.66.12-.85.16s-.32.03-.33.01z" fill="#e0e0e0"/><path d="M396.08 144.8a25.71 25.71 0 012.7-3.35 26.31 26.31 0 013-3.12 22.85 22.85 0 01-2.69 3.35 23.42 23.42 0 01-3.01 3.12z" fill="#e0e0e0"/><path d="M61.05 226.11A43.72 43.72 0 0134.25 206a38.84 38.84 0 01-2.81-32c2.93-8.15 8.57-15.32 11-23.62 2.74-9.41 1.11-19.4-.59-29s-3.42-19.59-.84-29 10.67-18.34 21.09-19c9.67-.62 18.6 6.07 22.63 14.3s4.06 17.66 3.12 26.67-2.78 18-2.21 27c1.17 18.29 12.14 35.5 10.85 53.78-.67 9.52-4.61 15.61-11.36 22.77-5.83 6.1-15.51 10.1-24.08 8.21" fill="#ebebeb"/><path d="M64.47 316.72c-.1 0-.18-40.51-.18-90.47s.08-90.48.18-90.48.18 40.5.18 90.48-.08 90.47-.18 90.47zM64 194.5a12.73 12.73 0 01-1.72-1.5c-1-.94-2.35-2.27-3.77-3.79s-2.74-2.87-3.69-3.85a15.14 15.14 0 01-1.48-1.64 14.92 14.92 0 011.66 1.49c1 .95 2.35 2.27 3.77 3.8s2.74 2.86 3.69 3.85A13.15 13.15 0 0164 194.5zm1-37.91a12.15 12.15 0 003.69-1.54 10.14 10.14 0 003-3 9.92 9.92 0 001.61-4.73v-.16l.21.18a7.93 7.93 0 00-4.46 2.45 17.12 17.12 0 00-2.48 3.33c-.6 1-1 1.88-1.3 2.48a5.64 5.64 0 01-.46.91 5.51 5.51 0 01.33-1 23.5 23.5 0 011.2-2.54 16.08 16.08 0 012.46-3.43 8.23 8.23 0 014.68-2.54h.23v.37a10.17 10.17 0 01-1.71 4.87 10 10 0 01-3.11 3 9.44 9.44 0 01-2.75 1.17 5.49 5.49 0 01-.8.15.8.8 0 01-.34.03z" fill="#e0e0e0"/><path d="M65 156.59a23.27 23.27 0 012.53-3.15 23.22 23.22 0 012.82-2.93 22.35 22.35 0 01-2.53 3.15 23.22 23.22 0 01-2.82 2.93z" fill="#e0e0e0"/><path d="M217.33 63.49c.58-4.27-5.45-7.79-10-8.16-2.16-.17-4.41.16-6.46-.56-4.44-1.54-6.21-7.28-10.54-9.11-3.24-1.36-7-.15-10.11 1.43s-6.25 3.57-9.75 3.8c-3.06.19-6.37-.94-9 .55-2 1.11-3 3.41-4.86 4.76s-4.14 1.6-6.36 1.72-4.53.15-6.56 1.07-3.7 3.07-3.28 5.26z" fill="#f5f5f5"/><path d="M298.21 95.49c.78-5.71-7.27-10.4-13.33-10.89-2.88-.23-5.88.21-8.62-.74-5.92-2.07-8.29-9.72-14.07-12.16-4.32-1.83-9.3-.2-13.49 1.91s-8.33 4.76-13 5.06c-4.08.26-8.5-1.25-12.06.74-2.66 1.48-4 4.54-6.49 6.35s-5.52 2.14-8.49 2.3-6.05.19-8.75 1.43-4.94 4.1-4.38 7z" fill="#ebebeb"/><path d="M469.49 315.9c0 .14-98.28.26-219.48.26s-219.5-.12-219.5-.26 98.26-.26 219.5-.26 219.48.11 219.48.26z" fill="#263238"/><path d="M167 382.81a167.62 167.62 0 00-27.41-27.41c-15.53-12.28-33.62-21.9-53.19-24.87-2.31-.35-4.76-.59-6.92.31s-3.84 3.34-3.13 5.56c1 3 5 3.4 7.77 5 3.87 2.21 5.24 7 7.33 10.91 4.55 8.57 13.32 14 21.89 18.5 16.44 8.72 34.29 16 52.9 15.92" fill="#ebebeb"/><path d="M166.1 376.6a23.37 23.37 0 01-3.67-6.14 9.46 9.46 0 010-7l-17.25-1.81c-1 1.3-1.57 6.33-1 7.82a14.19 14.19 0 002.72 4c4.09 4.73 8.56 9.7 14.6 11.34a7.87 7.87 0 003.76.25 4 4 0 002.9-2.24c.89-2.15-.66-4.41-2.06-6.22z" fill="#ff725e"/><path d="M165.56 375.8a14.55 14.55 0 00-4.43-.15 14.86 14.86 0 00-4.11 1.64s.29-.45 1-.93a8 8 0 016.32-1.11c.79.22 1.24.49 1.22.55zm-2.37-3.16a11.87 11.87 0 00-3.89-.68 12.35 12.35 0 00-3.8 1.09s.28-.4.94-.79a6.55 6.55 0 012.83-.82 6.37 6.37 0 012.91.52c.7.31 1.05.63 1.01.68zm-3.79-1.55s-.22.05-.63 0a5.42 5.42 0 01-1.65-.46 6.7 6.7 0 01-2.09-1.46 6.09 6.09 0 01-.94-1.21 2.65 2.65 0 01-.51-1.64.91.91 0 01.72-.77 1.43 1.43 0 01.92.2 5.54 5.54 0 011.16 1 8.14 8.14 0 011.42 2.11 4.55 4.55 0 01.6 2.25c-.08 0-.26-.86-.92-2.08a9.33 9.33 0 00-1.45-2 5.63 5.63 0 00-1.06-.89c-.4-.24-.82-.19-.87.2a2.19 2.19 0 00.43 1.3 6.23 6.23 0 00.84 1.14 7.1 7.1 0 001.91 1.46 20.53 20.53 0 002.12.85z" fill="#263238"/><path d="M158.13 371.42a4.17 4.17 0 01.31-1.88 9.22 9.22 0 01.86-1.88 8.59 8.59 0 01.71-1 1.33 1.33 0 011.43-.48.88.88 0 01.54.7 1.49 1.49 0 01-.1.74 5.08 5.08 0 01-.61 1.11 7.58 7.58 0 01-1.4 1.53 3.76 3.76 0 01-1.65.95c0-.07.59-.43 1.4-1.22a8.15 8.15 0 001.25-1.53 5.64 5.64 0 00.53-1c.13-.36.1-.71-.16-.79-.61-.23-1.13.69-1.53 1.26a11.29 11.29 0 00-.93 1.76c-.43 1.03-.57 1.74-.65 1.73zm9.22 11.31s-.08.08-.25.19a3.9 3.9 0 01-.81.38 6.83 6.83 0 01-3.24.27 11.37 11.37 0 01-4.49-1.78 44.24 44.24 0 01-4.71-3.52 54.21 54.21 0 01-4.26-4 20.13 20.13 0 01-3-3.8 9.13 9.13 0 01-1.13-3.05 3.26 3.26 0 010-1.2 10.73 10.73 0 001.48 4.06 22 22 0 003 3.66 57.61 57.61 0 004.25 4 50.28 50.28 0 004.63 3.52 11.66 11.66 0 004.29 1.82 7.15 7.15 0 003.12-.11c.77-.26 1.09-.48 1.12-.44z" fill="#263238"/><path d="M119.59 336.27c0 2-3.54 7.86-3.35 11.59s1 6.77 4.43 8.8c1.86 1.1 4.45 1.7 6.2.45a6.24 6.24 0 001.95-3c1.46-3.66 4.64-11.3 6.1-15" fill="#ff725e"/><path d="M125.9 350.52a17.88 17.88 0 00-2.78-1.69 18.94 18.94 0 00-3.18-.71 5.4 5.4 0 016 2.4zm1.94-2.66a24.8 24.8 0 00-3.23-1.87 23.79 23.79 0 00-3.62-.88 7 7 0 016.85 2.75z" fill="#263238"/><path d="M125.17 345.81a4.94 4.94 0 01-1.43-.76l-1.48-.95-.87-.58a2.82 2.82 0 01-.48-.38.8.8 0 01-.16-.8.58.58 0 01.37-.32 1 1 0 01.37 0 2.9 2.9 0 01.59.09 3.18 3.18 0 011 .42 3.25 3.25 0 011.25 1.36 2.1 2.1 0 01.25 1.64A9.36 9.36 0 00124 344a3.11 3.11 0 00-1.17-1.13 3.29 3.29 0 00-.89-.34c-.3-.07-.81-.08-.74 0s.13.35.45.55l.85.6 1.41 1c.83.67 1.31 1.07 1.26 1.13z" fill="#263238"/><path d="M124.55 345.62a3.67 3.67 0 011.07-1.64 6.88 6.88 0 012.9-1.78 2 2 0 01.73-.13 1 1 0 01.79.42.9.9 0 010 .9 2.08 2.08 0 01-.49.56 8.28 8.28 0 01-1.06.72 7.8 7.8 0 01-2 .76 3.66 3.66 0 01-2 .05c0-.08.74-.08 1.87-.41a8.28 8.28 0 001.86-.82 7.25 7.25 0 001-.69c.3-.24.54-.62.39-.8s-.53-.22-.92-.08a6.94 6.94 0 00-1.11.44 7 7 0 00-1.68 1.13c-.9.75-1.28 1.42-1.35 1.37z" fill="#263238"/><path d="M133.82 342.54a10.88 10.88 0 01-.59 1.59l-1.77 4.23c-.39.9-.81 1.88-1.25 2.92a29.74 29.74 0 01-1.58 3.31 6.58 6.58 0 01-3 2.83 5.86 5.86 0 01-4.41-.05 7.25 7.25 0 01-3.39-2.82 10.62 10.62 0 01-1.46-3.82 16.63 16.63 0 01.28-6.85 16.46 16.46 0 011.72-4.29 11.72 11.72 0 01.67-1.06 1.42 1.42 0 01.28-.33A22.45 22.45 0 00117 344a16.56 16.56 0 00-.16 6.68 10.16 10.16 0 001.41 3.63 6.77 6.77 0 003.15 2.62 5.43 5.43 0 004 .06 6.12 6.12 0 002.76-2.61 30 30 0 001.59-3.23l1.31-2.89c.79-1.7 1.43-3.11 1.93-4.17a9.84 9.84 0 01.83-1.55z" fill="#263238"/><path d="M115.19 324.09c-.15 5 3.2 14.62 7.75 17.74a9.76 9.76 0 006.62 2 10.63 10.63 0 005.23-2.66c4-3.27 5.75-6.63 9-13.64" fill="#263238"/><path d="M114.58 280.73s-.68 44.87 1.15 47.35c3.8 5.14 10.46 9.39 17.57 7.9s10.75-5 10.65-10.66 1.05-31.2 1.05-31.2l14.31-12.76-1.16-6.13-43.31-8.46z" fill="#263238"/><path d="M173.81 272.75c0 .3 2.86 53.07 2.15 57.84s-13.48 35.76-13.48 35.76c-6.7.49-12.82 0-18.7-2.74a133.62 133.62 0 012-19C147.66 335.2 149 331 149 331l-4-36.57 4.87-21.64z" fill="#263238"/><path d="M161.44 279.94c.1.11-4.22 4-9.64 8.69s-9.89 8.41-10 8.3 4.23-4 9.65-8.69 9.9-8.41 9.99-8.3zm-2.7 8.69a10.77 10.77 0 01-2 1l-4.74 2.21-4.77 2.29a9.41 9.41 0 01-2 .87 8.9 8.9 0 011.85-1.2c1.18-.67 2.84-1.55 4.72-2.43s3.61-1.6 4.89-2.08a8.51 8.51 0 012.05-.66zm-22.38 31.24a17.79 17.79 0 011.1-2.66c.72-1.63 1.7-3.88 2.69-6.4s1.83-4.83 2.42-6.51a19.16 19.16 0 011-2.7 13.53 13.53 0 01-.67 2.81c-.5 1.71-1.28 4.06-2.28 6.59s-2 4.77-2.85 6.36a13.83 13.83 0 01-1.41 2.51zm5.64 11.84a5.32 5.32 0 01-1 .76c-.64.45-1.58 1.1-2.8 1.81a20.39 20.39 0 01-4.54 2 11.91 11.91 0 01-6.08.22 15.42 15.42 0 01-5.5-2.61 26.55 26.55 0 01-3.69-3.31c-1-1-1.68-1.91-2.18-2.51a5.25 5.25 0 01-.72-1 6.46 6.46 0 01.87.85c.54.57 1.31 1.41 2.3 2.39a27 27 0 003.7 3.18 15.49 15.49 0 005.34 2.49 11.69 11.69 0 005.84-.18A21.52 21.52 0 00138 334c2.49-1.38 3.93-2.37 4-2.29zm11.36 9.13a7.69 7.69 0 01-1.13-1.92 31.8 31.8 0 01-1.93-5 30.25 30.25 0 01-1-5.29 7.6 7.6 0 01-.06-2.23c.16 0 .43 3.38 1.59 7.38s2.68 6.99 2.53 7.06z" fill="#455a64"/><path d="M150.94 345.08a6.42 6.42 0 01-.86-1.91 19.44 19.44 0 01-.54-10 6 6 0 01.65-2 37.65 37.65 0 00-.52 7 39.21 39.21 0 001.27 6.91zm21.27-9.91a7.23 7.23 0 01-3.45 2.54 7.13 7.13 0 01-4.25.62 34.28 34.28 0 004.05-1.1 36.19 36.19 0 003.65-2.06z" fill="#455a64"/><path d="M176.21 202.59c.27 16.08 3.78 32.07-4.89 45.62s-24.23 23.4-40.25 22.07c-7.07-.58-14.17-3.28-21.07-1.8-10.5 2.16-16.81 12.52-21.86 21.91-4-8.27-13.43-12.09-21.19-17-7.32-4.66-13.6-10.76-19.82-16.81l-23.84-23.22c-1.65-1.61-3.38-3.35-3.92-5.59-.73-3 .95-6.19 3.37-8.12 5.07-4.08 12.45-3.53 18.66-1.6s12.19 5 18.69 5.43c9.41.6 18.22-4.53 25.65-10.34s14.35-12.57 23-16.25 20-3.37 26.2 3.73l25.51.44s7.69-10.4 15.73 1.53" fill="#ff725e"/><path d="M176.21 202.59c-8-11.93-15.73-1.53-15.73-1.53l-25.48-.44s-8.63-8.88-23.92 4.81-25 34.43-46 34.42-32.5-19.07-40.17-13.93c-3.5 2.35-1.61 7.44-1.61 7.44l23.84 23.19c6.22 6.05 12.5 12.15 19.82 16.81 7.76 4.94 17.15 8.76 21.19 17 5-9.38 11.36-19.75 21.81-21.91 7-1.45 14 1.22 21.12 1.8 16 1.33 31.58-8.53 40.25-22.07s5.16-29.54 4.89-45.62" opacity=".4"/><path d="M42.7 243.09a3.6 3.6 0 01.63.38c.41.26 1 .69 1.75 1.16a51.71 51.71 0 0055.55.67 53.27 53.27 0 006.27-4.5c.72-.57 1.23-1.06 1.6-1.37a2.65 2.65 0 01.58-.45 5.87 5.87 0 01-.51.53c-.35.33-.84.85-1.54 1.44a47.62 47.62 0 01-6.21 4.66 50.57 50.57 0 01-38.21 6.76 50.69 50.69 0 01-10.9-3.72A47.92 47.92 0 0145 244.8c-.76-.5-1.31-1-1.7-1.24a4.45 4.45 0 01-.6-.47z" fill="#263238"/><path d="M96.83 262.28s-7.67-3.73-10.85-2.13c0 0-3.32 6.58-3.63 7-.86 1.12-2.56 5.22-1.75 6.13 0 0-.86 4.3.11 5.31s2.73-1.59 2.73-1.59-1.28 3.88.28 4.51c2.22.9 2.49-2.32 2.49-2.32S86 281.73 88 282c1 .12 2.09-1.3 2.14-4.23 0-.75 2.56-2.63 2.56-2.63s-.13 4.13.66 5.87 2.42.71 2.45-.81a14.79 14.79 0 01.52-3.39 56.49 56.49 0 00.31-6.71z" fill="#ffbe9d"/><path d="M90.39 272.83s-.22.46-.85.93a24.14 24.14 0 00-2.36 1.7 3.22 3.22 0 00-1 2.48c0 .75 0 1.22-.06 1.23a2.54 2.54 0 01-.31-1.21 4 4 0 01.09-1.39 3.13 3.13 0 01.91-1.49 12.85 12.85 0 012.52-1.63c.67-.37 1-.67 1.06-.62zm-3.82-1a14.4 14.4 0 00-2.09 2.41 14.11 14.11 0 00-1.07 3 5 5 0 013.16-5.42zm-2.49-1.99a20.2 20.2 0 00-2 1.56 20.52 20.52 0 00-1.45 2.09 4 4 0 013.47-3.65z" fill="#eb996e"/><path d="M217 154.5a1.35 1.35 0 00-1.79-.87 5.56 5.56 0 00.35-1.84 2 2 0 00-.79-1.63 1.25 1.25 0 00-1.68.24 2 2 0 00-3.42-1.89 2.37 2.37 0 00-1.59-2.16 3.56 3.56 0 00-2.78.25 7.65 7.65 0 00-2.22 1.79 6.93 6.93 0 00-1.57 2.47 8.5 8.5 0 00-.27 2.76l.12 10.35 7.89 4.09a4.45 4.45 0 004.19-2.24 11.76 11.76 0 001.43-4.78 8.92 8.92 0 01.57-2.41c.31-.7.81-1.29 1.18-1.95a2.78 2.78 0 00.38-2.18z" fill="#ffbe9d"/><path d="M205.65 154.5s4.07-3.57 5-4.15 2.85-2.55 4-.7c.93 1.48-1.34 3.6-1.52 3.77-.43.44-3.57 4.57-3.57 4.57a4.62 4.62 0 01-.5 5.57" fill="#ffbe9d"/><path d="M209.05 163.56c-.05-.05.38-.49.76-1.44a4.51 4.51 0 00-.44-4l-.08-.13.09-.12 2.2-2.87 1.23-1.58a10.66 10.66 0 001.29-1.57c.49-.75.73-1.66.18-2.25a1.07 1.07 0 00-.93-.46 2.35 2.35 0 00-1.06.36c-.66.39-1.31.92-1.9 1.3s-1.1.86-1.58 1.24l-2.28 1.84a4.58 4.58 0 01-.88.63 4.35 4.35 0 01.74-.78c.51-.48 1.25-1.15 2.18-2 .47-.41 1-.85 1.56-1.31s1.17-.91 1.92-1.36a2.8 2.8 0 011.28-.45 1.57 1.57 0 011.34.64 1.83 1.83 0 01.43 1.45 3.57 3.57 0 01-.55 1.4 11.88 11.88 0 01-1.37 1.65l-1.18 1.58-2.23 2.79v-.25a4.7 4.7 0 01.31 4.35 3.51 3.51 0 01-.35.62 2.28 2.28 0 01-.32.42c-.23.21-.34.31-.36.3z" fill="#eb996e"/><path d="M205.16 147.94a11.66 11.66 0 01.13 3.42 3.28 3.28 0 00.08 1.21.86.86 0 00.62.56c.53.12.94 0 .95.1s-.32.3-1 .27a1.23 1.23 0 01-1-.75 3.21 3.21 0 01-.16-1.41 11.48 11.48 0 01.38-3.4z" fill="#eb996e"/><path d="M203.48 150.46c.14-.06.38.23.76.41s.75.22.79.37-.45.38-1 .1-.69-.85-.55-.88zm6.04.41c-.14-.06 0-.65 0-1.37s0-1.32.14-1.36.43.58.38 1.39-.39 1.39-.52 1.34zm1.3 6.13c.06-.05.33.3.86.59a1 1 0 00.93.07 2.36 2.36 0 00.87-.92c1.11-1.66 1.77-3.16 1.91-3.11a7.77 7.77 0 01-1.47 3.4 2.62 2.62 0 01-1.13 1.08 1.41 1.41 0 01-1.3-.2c-.58-.48-.72-.91-.67-.91z" fill="#eb996e"/><path d="M212.55 157.73c.09 0 .07.37.22.81a.65.65 0 00.51.45 1.92 1.92 0 00.94-.3 12.55 12.55 0 002.24-1.83c.14 0-.41 1.46-2 2.29a2.06 2.06 0 01-1.27.31 1 1 0 01-.78-.81c-.08-.65.09-.92.14-.92zm-2.08 2.27c-.06-.13.63-.48 1.53-.33s1.45.68 1.36.78-.67-.16-1.44-.27-1.41-.02-1.45-.18z" fill="#eb996e"/><path d="M200 162.65l-12.43 27.13s-14 10.77-16.31 10.93a26.28 26.28 0 00-10.44 3.3l-.26-.1-20.89-3.19-8.91 1.78s-5.55-.89-13.75 6.7c-5.12 4.74-22.51 17.08-25 23.88s-8.75 29.19-8.75 29.19l14.93 3.42s9.15-22.32 10.63-24.77c1-1.57 7.8-6.51 12.6-9.86-.91 5.5-1.92 11.53-2.42 16.7-1.52 15.41-6.15 19.71-3.7 21.77 5.38 4.53 54.83 5.82 57.8 3.62 1.16-.86 0-2.28 0-16.12 0-10.68.53-22.77 1-32.16 6.91-5.49 25.48-20.53 27.81-25.17 2.87-5.71 11.44-32 11.44-32z" fill="#455a64"/><path d="M128.39 208.19a4.17 4.17 0 01.52 1.17 15.7 15.7 0 01.82 3.38 17.89 17.89 0 010 5.16 29.43 29.43 0 01-.68 3 16.64 16.64 0 01-1.15 3.1 18.36 18.36 0 01-3.81 5.06 40.58 40.58 0 01-4 3.27c-1.19.84-2.18 1.5-2.88 1.92a6.16 6.16 0 01-1.11.61 5.34 5.34 0 011-.78c.66-.47 1.61-1.17 2.77-2a43.8 43.8 0 003.86-3.33 18.46 18.46 0 003.68-4.94 17.17 17.17 0 001.09-3 29.81 29.81 0 00.69-2.92 18.6 18.6 0 00.16-5 31.9 31.9 0 00-.96-4.7z" fill="#263238"/><path d="M137.34 234.52c.06-.66.23-1.05.53-1.18a1.08 1.08 0 01.39-.09.68.68 0 01.64.39 1.6 1.6 0 01.15.78v1.16l.09 2.08v.76c.09.7.16 1.23.21 1.57a9.14 9.14 0 01.08 1.58 1.35 1.35 0 01-.24.73.79.79 0 01-.66.32 1.36 1.36 0 01-.38-.06.85.85 0 01-.57-.68 4.18 4.18 0 01-.1-.94l-.07-1.91c0-.59-.26-.85-.75-.8a7.55 7.55 0 01-1.16.05c-.31 0-.47.22-.48.7s0 1 0 1.62.05 1 .05 1.35c0 .65-.4.91-1.15.79a1 1 0 01-.58-.25 1 1 0 01-.18-.6v-.62q0-.3-.06-1.38c0-1-.09-1.76-.11-2.17-.05-.89-.08-1.56-.08-2v-1.33c.07-.61.26-1 .57-1.06a1.34 1.34 0 01.36-.06c.42 0 .72.35.89 1.07a4.26 4.26 0 01.12 1.13 3.9 3.9 0 000 .89c.08.21.33.32.76.32a9.08 9.08 0 001.05 0 .63.63 0 00.57-.69q.1-1.24.11-1.47zm8.15.88a3.59 3.59 0 01-.79.07h-1a2.28 2.28 0 00-.91.16.86.86 0 00-.55.5 3.6 3.6 0 00-.14.75v.81c0 .4.28.63.62.67a4.79 4.79 0 00.87 0h1.6a1 1 0 01.56.19.58.58 0 01.28.49 2.82 2.82 0 010 .42.68.68 0 01-.18.26 1.62 1.62 0 01-1 .16c-.48-.05-.84-.09-1.08-.1a5.32 5.32 0 01-.62-.05h-.46c-.18 0-.3.15-.37.43s0 .46.1.57a1 1 0 00.47.25 6.44 6.44 0 001.54.08c.83-.07 1.32.09 1.45.49a.75.75 0 010 .26c0 .58-.37.88-1.1.88l-.72-.06c-1.09-.09-1.75-.15-2-.19a1.7 1.7 0 01-1.53-1.84q0-1.56-.12-2.73v-.86a11 11 0 01.2-2c.18-.93.91-1.49 2.2-1.69a5.28 5.28 0 01.92-.08 6.22 6.22 0 011.75.29.94.94 0 01.46.48 1.1 1.1 0 01.13.66 1.47 1.47 0 010 .22.9.9 0 01-.58.51zm5.02-2.15a10.18 10.18 0 012.33.13 1.76 1.76 0 011.64 1.37 4.38 4.38 0 01.12.92 1.57 1.57 0 01-.19.81 2.86 2.86 0 01-2.68 1.38h-1.65c-.17 0-.11 0-.11.07s.07.18.21.33c.47.5.86.93 1.16 1.3.44.52.76.91 1 1.16a2.5 2.5 0 01.68 1.26.77.77 0 01-.49.7.94.94 0 01-.36.08A1.69 1.69 0 01151 242a5 5 0 01-.79-1.15l-1.21-2.29c.14 1.3.2 2.09.19 2.36v.81a1.42 1.42 0 01-.11.51.69.69 0 01-.32.38 1.72 1.72 0 01-.51.12c-.44 0-.66-.32-.66-1.1a3.54 3.54 0 01-.06-.53c-.09-1.49-.14-2.75-.13-3.78v-1.47a2.55 2.55 0 01.72-2 4.31 4.31 0 012.39-.61zm0 1.5a1.21 1.21 0 00-.67.19.94.94 0 00-.46.81.65.65 0 00.72.72c1 .05 1.49-.16 1.59-.62a.74.74 0 00-.45-.93 1.62 1.62 0 00-.73-.17zm6.49 7.64a5.27 5.27 0 00.84.25c.24-.53.46-1.07.72-1.6h-.29c-.51-.1-.83-.59-1-1.48a9 9 0 01-.11-1.43 9.9 9.9 0 01.08-1.31c.12-.94.38-1.46.8-1.56a2.13 2.13 0 011.12 0c.35.1.61.46.78 1.09a6.63 6.63 0 01.14.94c.38-1 .79-2 1.25-3a1.69 1.69 0 00-.42-.48 2 2 0 00-.76-.43 4.75 4.75 0 00-.93-.13h-.63c-1.63 0-2.6.54-2.91 1.64a8.06 8.06 0 00-.35 2.15v1.45a6.48 6.48 0 00.15 1.41l.3 1.19a1.23 1.23 0 00.43.78 2 2 0 00.79.52z" fill="#e0e0e0"/><path d="M162.18 238.69c-.05-.45-.09-.77-.1-1a4.28 4.28 0 00-.32-1.29 1.78 1.78 0 00-.53-.67 2.76 2.76 0 00-.46-.3l-.12.34a3.69 3.69 0 01-.21.64v.06a1 1 0 010 .12 8.54 8.54 0 01-.41.92 2.41 2.41 0 01.3.7 5.84 5.84 0 01.17 1.43 10.64 10.64 0 01-.06 1.08c-.1 1.11-.31 1.78-.6 2a1.27 1.27 0 01-.79.23 2 2 0 01-.42 0c-.39-.07-.66-.38-.84-.91-.21.51-.44 1-.68 1.53a3.83 3.83 0 01-.25.44 1.9 1.9 0 00.5.32 5.17 5.17 0 00.86.26 7.17 7.17 0 00.88.09h.28a3.77 3.77 0 001.25-.21 1.75 1.75 0 001.15-.94 4.16 4.16 0 00.26-.74 23.79 23.79 0 00.28-3.13c-.08-.24-.1-.57-.14-.97zm3.54-.25a13.89 13.89 0 01-.11 1.95c-.14 1-.39 1.56-.77 1.56a.82.82 0 01-.72-.46 1.71 1.71 0 01-.23-.87c0-.94-.06-2.15-.18-3.62v-.4c0-.91.3-1.37.9-1.39a.75.75 0 01.78.43 2.7 2.7 0 01.3.88c0 .21.02.85.03 1.92zm-1.11 6.23c-.47-.16-.71-.43-.71-.82a1.41 1.41 0 01.13-.56c.22-.55.52-.83.91-.83a1 1 0 01.35.08.84.84 0 01.63.83 1.31 1.31 0 010 .39c-.17.6-.41.92-.7.94s-.56.02-.61-.03z" fill="#e0e0e0"/><path d="M164 226.84a2.17 2.17 0 01-.11.57c-.09.37-.22.91-.42 1.6-.39 1.39-1 3.38-1.94 5.79a54.58 54.58 0 01-3.9 8.16 40 40 0 01-6.86 8.73 31.07 31.07 0 01-9.31 6 26.39 26.39 0 01-8.84 2 21.1 21.1 0 01-6.08-.58c-.7-.15-1.22-.38-1.59-.48a2.3 2.3 0 01-.53-.22c0-.05.77.2 2.17.5a22.19 22.19 0 006 .41 26.38 26.38 0 008.67-2.08 31 31 0 009.14-5.95 40.76 40.76 0 006.8-8.59 57.24 57.24 0 004-8.06c1-2.38 1.64-4.34 2.08-5.71.21-.64.39-1.16.52-1.57a3.07 3.07 0 01.2-.52z" fill="#263238"/><path d="M128.46 259.8a16.21 16.21 0 019.79-9.89c2.89-1 6-1.2 8.9-2.27 5.5-2 9.28-7 12.75-11.76a31 31 0 01-31.18 23.7" opacity=".2"/><path d="M173.36 207.77a12.19 12.19 0 01.66 2.86 41.21 41.21 0 01.53 7.07 41.7 41.7 0 01-.65 7.06 13.33 13.33 0 01-.71 2.85 23.47 23.47 0 01.35-2.91 59 59 0 00.49-7 60.33 60.33 0 00-.37-7 23.42 23.42 0 01-.3-2.93z" fill="#263238"/><path d="M159.61 201.38v-.19c7.41-1 10.82-8.1 11.31-16.65a104.87 104.87 0 00.14-14.72 76.74 76.74 0 00-2.48-17.16 20.94 20.94 0 00-17.35-6.66c-11.35.82-17.23 16-17.23 16s.08 23.13.75 27.81a37.6 37.6 0 01.57 6.34l.26 5.72a12 12 0 0012 11.46 12 12 0 0012.03-11.95z" fill="#ffbe9d"/><path d="M134.59 176.56c-.2-.08-8-2.42-7.77 5.52S135 188.19 135 188s-.41-11.44-.41-11.44z" fill="#ffbe9d"/><path d="M132.46 185s-.14.1-.37.21a1.4 1.4 0 01-1 .05c-.85-.29-1.59-1.6-1.66-3a4.44 4.44 0 01.34-2 1.59 1.59 0 011-1.09.72.72 0 01.83.36c.11.22.06.38.1.39s.17-.13.1-.46a.91.91 0 00-.33-.49 1 1 0 00-.77-.18 1.93 1.93 0 00-1.41 1.26 4.64 4.64 0 00-.42 2.23c.09 1.6.94 3.07 2.1 3.38a1.47 1.47 0 001.26-.25c.22-.21.25-.41.23-.41z" fill="#eb996e"/><path d="M166.56 174.49c-.22.23-1.52-.75-3.38-.76s-3.23.91-3.43.68.13-.51.72-.93a4.75 4.75 0 012.75-.83 4.61 4.61 0 012.69.89c.56.46.76.85.65.95zm-18.23.62c-.22.23-1.52-.75-3.38-.76s-3.23.91-3.43.68.12-.51.72-.93a4.75 4.75 0 012.75-.83 4.61 4.61 0 012.69.89c.56.44.76.84.65.95zm-1.92-6.88c-.1.4-1.23.44-2.46.84s-2.2 1-2.5.68c-.14-.13-.06-.49.3-.92a3.68 3.68 0 011.78-1.13 3.87 3.87 0 012.12-.07c.53.16.8.37.76.6zm18.99-.73c-.32.36-1.52.42-2.68.13s-1.83-.82-1.5-1.17 1.52-.42 2.67-.13 1.83.81 1.51 1.17zm-12.63 20.88c0 .11-.23.31-.72.37a2.59 2.59 0 01-1.84-.51 2.63 2.63 0 01-1-1.64c-.07-.49.06-.79.17-.79s.43 1.05 1.35 1.74 1.98.6 2.04.83z" fill="#263238"/><path d="M159.61 201.19s-9.51.16-11.75-1.49c0 0 1.43 4.57 11.51 4.09z" fill="#eb996e"/><path d="M175.75 160.53c.11-1.86.68-3.69.69-5.56a10.09 10.09 0 00-3.39-7.36 12 12 0 00-7.64-2.93c-2.09-.05-4.19.39-6.26.09-1.75-.26-3.38-1.05-5.1-1.47a13 13 0 00-10.49 1.95 36.1 36.1 0 00-8.13 7.33s-8.12.24-7.76 11.64 1.17 12.78 1.17 12.78l2.68-.82a5.49 5.49 0 00.26 3.87 2.06 2.06 0 001.83 1.07c1.57-.07 2.09-1.89 2.27-3.35q.7-5.81.87-11.66c0-1.09.27-2.48 1.33-2.73a3.8 3.8 0 011.85.36 3.48 3.48 0 003.46-1.11c.13 1.49 2.15 2.16 3.5 1.53a7 7 0 002.87-3.34 6 6 0 00.2 2.47 2 2 0 001.85 1.42c1-.05 1.62-1 2.06-1.83a22.49 22.49 0 002.26-6.56 13.79 13.79 0 005.74 8.74c.34-1 .68-2 1-3a5.84 5.84 0 001.39 1.61 2 2 0 002 .27 1.34 1.34 0 00.69-1.25 2.31 2.31 0 003 .75 2.39 2.39 0 00.89-1c-.39 5.81-.76 12.1.31 17.63l2.67-6a23.31 23.31 0 001.93-11.39 16.16 16.16 0 010-2.15z" fill="#263238"/><path d="M136 154.12c-.06 0-.15-.52-.58-1.25a4.94 4.94 0 00-5.62-2.36c-.82.22-1.27.52-1.3.48s.09-.11.3-.24a4 4 0 01.94-.43 4.84 4.84 0 015.86 2.45 4 4 0 01.36 1 1 1 0 01.04.35zm1-.23a1.15 1.15 0 01-.34-.25 5.11 5.11 0 01-.79-.84 6.58 6.58 0 01-1.3-3.54 6.48 6.48 0 01.92-3.66 5.32 5.32 0 01.68-.92c.19-.2.31-.29.32-.28s-.38.46-.83 1.3a6.82 6.82 0 00-.8 3.54 6.91 6.91 0 001.18 3.44c.53.79.96 1.17.96 1.21zm19.36 24.72c.12 0 .34.38.6 1.06.13.35.28.76.42 1.22.07.24.14.48.22.73a3.29 3.29 0 01.19.89 1.43 1.43 0 01-.37 1.06 1.64 1.64 0 01-.9.45 1.85 1.85 0 01-.85-.08 2.19 2.19 0 01-.61-.32c-.63-.51-.83-.93-.76-1s.48.19 1.08.49a1.52 1.52 0 001 .14 1 1 0 00.43-.25.61.61 0 00.13-.45 3.51 3.51 0 00-.14-.69c-.06-.26-.12-.51-.17-.75-.11-.47-.19-.9-.25-1.27-.12-.74-.13-1.2-.02-1.23z" fill="#263238"/><path d="M131.74 166.14a2.15 2.15 0 01-.1-.55c0-.37-.1-.89-.15-1.54a17.17 17.17 0 01.27-5.1 8.51 8.51 0 012.49-4.44 5.76 5.76 0 011.28-.89 1.8 1.8 0 01.54-.2 10.12 10.12 0 00-1.68 1.24A8.84 8.84 0 00132 159a19.35 19.35 0 00-.35 5 16.72 16.72 0 01.09 2.14zm6.88-2.95a4.59 4.59 0 01-.94-1.14 10.71 10.71 0 01-1.4-3.27 10.89 10.89 0 01-.24-3.56 5.32 5.32 0 01.3-1.44 14.49 14.49 0 01-.1 1.46 12.27 12.27 0 00.32 3.47 12.54 12.54 0 001.3 3.23c.45.78.79 1.22.76 1.25zm17.14-7.02a.94.94 0 010-.27v-.78a22.6 22.6 0 00-.23-2.85 8.32 8.32 0 00-1.53-3.86 5.42 5.42 0 00-1.88-1.55 6.9 6.9 0 00-2.53-.7 10 10 0 00-5 .9 11.29 11.29 0 00-3.4 2.45 10.58 10.58 0 00-1.66 2.3c-.32.6-.46.95-.48.94a.67.67 0 01.08-.27 5.14 5.14 0 01.3-.72 9.82 9.82 0 011.62-2.39 10.24 10.24 0 011.47-1.35 12 12 0 012-1.2 10.18 10.18 0 015.15-.95 7.26 7.26 0 012.63.74 5.54 5.54 0 012 1.64 8.52 8.52 0 011.53 4 18.64 18.64 0 01.13 2.88v.78a.94.94 0 01-.2.26z" fill="#455a64"/><path d="M164.87 157.92a1.1 1.1 0 01-.09-.27c0-.22-.1-.48-.18-.79-.15-.69-.37-1.69-.72-2.9a17 17 0 00-1.68-4.05 8.94 8.94 0 00-3.84-3.59 11.76 11.76 0 00-5.2-1.07 21.25 21.25 0 00-4.36.54c-1.23.28-2.21.55-2.89.73l-.79.21-.28.05a1 1 0 01.26-.11l.78-.26c.67-.21 1.64-.51 2.87-.81a19.91 19.91 0 014.41-.62 12 12 0 015.33 1.08 9.18 9.18 0 013.94 3.72 16.73 16.73 0 011.65 4.13c.33 1.22.51 2.23.63 2.92.06.35.11.62.13.81a1 1 0 01.03.28zm4.46 1.5l.18-2.29a12.21 12.21 0 00-.59-5.4 6.18 6.18 0 00-1.68-2.43 5.19 5.19 0 00-2.14-1.09 5 5 0 00-2.24 0l.14-.08a2.56 2.56 0 01.44-.14 4.06 4.06 0 011.7 0 5.09 5.09 0 012.27 1.09 6.23 6.23 0 011.78 2.53 11.65 11.65 0 01.52 5.52c-.08.7-.17 1.27-.24 1.66a2.66 2.66 0 01-.14.63z" fill="#455a64"/><path d="M143.81 183.15c-.08 0-.11-.2-.07-.42s.14-.37.22-.35.11.2.07.41-.14.37-.22.36zm3.32-.7c-.08 0-.18 0-.22-.18s0-.25.06-.28.17.06.21.19.02.25-.05.27zm-1.69 2.01c-.08 0-.16-.16-.18-.37s0-.39.11-.4.16.16.18.37-.03.39-.11.4zm-4.18-.38c-.08 0-.09-.22 0-.43s.17-.37.25-.35.09.22 0 .43-.18.37-.25.35zm22.09-1.7c-.08 0-.16-.14-.19-.33s0-.36.11-.37.16.14.18.33-.03.36-.1.37zm3.1-.08c-.08 0-.14-.17-.14-.39s.06-.38.14-.38.14.17.14.38-.06.39-.14.39zm2.55-.16c-.08 0-.18-.14-.22-.36s0-.4.06-.41.18.14.22.36.04.39-.06.41zm-4 2.79c-.08 0-.09-.22 0-.43s.18-.37.25-.35.09.22 0 .43-.19.42-.25.35zm2.9-.39c-.08 0-.16-.12-.18-.29s0-.32.11-.33.16.12.18.29-.01.32-.11.33z" fill="#eb996e"/><path d="M147.45 176a1.71 1.71 0 01-1.51 1.86 1.65 1.65 0 01-1.88-1.4 1.71 1.71 0 011.51-1.85 1.63 1.63 0 011.88 1.39zm18.14 0a1.7 1.7 0 01-1.51 1.85 1.63 1.63 0 01-1.88-1.39 1.72 1.72 0 011.51-1.86 1.64 1.64 0 011.88 1.4z" fill="#263238"/><path d="M134.24 202.33s4.31 8.79 13.36 8.13 12.54-6.07 12.54-6.07l1.68 5-7.36 8.32-6.86 1.65-7.93-1.65-6.77-4.27z" fill="#455a64"/><path d="M143.47 210.1c0 .14-1.05 0-1.8.87s-.51 1.87-.65 1.89-.23-.21-.27-.64a2.12 2.12 0 012.06-2.31c.43-.01.68.09.66.19zm5.32 3.5c-.15 0-.15-.74-.29-1.6s-.36-1.54-.23-1.61.6.58.75 1.53-.1 1.71-.23 1.68zm6.05-1.16c-.14 0-.44-.72-.91-1.59s-.91-1.55-.8-1.65.77.47 1.26 1.4.61 1.81.45 1.84zm4.73-3.08c-.15 0-.24-.68-.68-1.34s-1-1.05-.93-1.19.85.08 1.37.91.38 1.64.24 1.62zm-24.73-.3c-.13 0 .11-.85.87-1.48s1.59-.74 1.61-.6-.62.43-1.27 1-1.05 1.15-1.21 1.08zm-2.76-3.2c-.12-.08.31-.8 1.23-1.16s1.72-.16 1.69 0-.72.19-1.5.51-1.31.79-1.42.65z" fill="#263238"/><path d="M161 203.1a4.52 4.52 0 01-.88.81 17.67 17.67 0 01-2.74 1.81 19.31 19.31 0 01-10.5 2.28 19.68 19.68 0 01-10.06-3.78 18.68 18.68 0 01-2.46-2.17 4.94 4.94 0 01-.77-.92c.07-.08 1.2 1.23 3.45 2.79a20.34 20.34 0 009.88 3.56 19.91 19.91 0 0010.3-2.08c2.44-1.23 3.78-2.4 3.78-2.3z" fill="#ff725e"/><path d="M148.15 208.23a1.85 1.85 0 01-.82-.19 7.11 7.11 0 01-2-1.16 15.6 15.6 0 01-2.37-2.46 15 15 0 01-1.21-1.63 2.25 2.25 0 01-.31-1.13 1.47 1.47 0 01.53-1.15 2.1 2.1 0 012.3-.1 6 6 0 011.57 1.36 9.32 9.32 0 011.74 2.95 8.38 8.38 0 01.51 2.25 2 2 0 010 .84 19.49 19.49 0 00-.83-2.95 9.6 9.6 0 00-1.76-2.77 5.63 5.63 0 00-1.44-1.22 1.59 1.59 0 00-1.74 0 1.29 1.29 0 00-.1 1.64 14.6 14.6 0 001.14 1.57 17.52 17.52 0 002.23 2.47 11 11 0 002.56 1.68z" fill="#ff725e"/><path d="M147.93 208.52s-.06-.27-.07-.77a13 13 0 01.15-2.1 8.29 8.29 0 011-3 6.31 6.31 0 011.21-1.46 4.43 4.43 0 01.86-.57 1.62 1.62 0 011.16-.13 1.27 1.27 0 01.79.9 2.6 2.6 0 010 1.07 6.51 6.51 0 01-.61 1.79 7.78 7.78 0 01-2 2.45 10 10 0 01-1.76 1.16c-.44.23-.7.32-.72.29s1-.57 2.24-1.73a8.05 8.05 0 001.81-2.38 6 6 0 00.53-1.66c.09-.56 0-1.25-.49-1.39s-1.07.22-1.52.59a5.83 5.83 0 00-1.13 1.32 8.55 8.55 0 00-1.08 2.8c-.3 1.72-.3 2.83-.37 2.82zm-14.21 16.77a2.19 2.19 0 01-.22-1 5.2 5.2 0 01.59-2.72 5.38 5.38 0 013.13-2.66 38.75 38.75 0 014.89-1 7.48 7.48 0 004.12-2.34 7.27 7.27 0 001.71-3.5 9.76 9.76 0 00-.14-3.66 2.54 2.54 0 01.37.94 7.2 7.2 0 01.13 2.78 7.3 7.3 0 01-1.71 3.75 7.77 7.77 0 01-4.36 2.54 46.52 46.52 0 00-4.85.94 5.11 5.11 0 00-3 2.39 5.43 5.43 0 00-.71 2.54c.02.64.09.99.05 1z" fill="#ff725e"/><path d="M127.66 215a2.56 2.56 0 01.73-.69 6.25 6.25 0 012.5-1.09 6.69 6.69 0 014 .44c1.41.6 2.82 1.48 4.52 1.39a10.47 10.47 0 004.54-1.33 7.43 7.43 0 002.9-2.51 4.83 4.83 0 00.76-2.46c0-.63-.1-1-.06-1a1.75 1.75 0 01.26 1 4.7 4.7 0 01-.64 2.66 7.57 7.57 0 01-3 2.74 10.56 10.56 0 01-4.76 1.43 6.16 6.16 0 01-2.57-.48c-.78-.31-1.47-.69-2.15-1a6.46 6.46 0 00-3.77-.51 8.48 8.48 0 00-3.26 1.41z" fill="#ff725e"/><path d="M335.75 453a108.74 108.74 0 00-51.58-22.25c-4.33-.63-9.3-1.36-11.65-5.06-2.55-4-.54-9.31-.83-14.08-.43-7.12-6-12.82-11.84-16.92s-12.41-7.5-16.7-13.19-5.3-14.78.16-19.37c3.52-3 8.57-3.17 13.15-2.75 15.12 1.38 29.23 7.88 43 14.3 11.34 5.28 23.23 11 30.29 21.34 5.06 7.4 7.09 16.41 9 25.18l5.49 25.06c.48 2.18.88 4.69-.5 6.44s-5.12.94-4.71-1.25" fill="#ebebeb"/><path d="M460.58 203.72c0-.41-3.41-.09-3.41-.09l.4-1c.4-1-1.3-1.1-1.3-1.1-3.1 1.1-13.53 2.2-13.53 2.2L430.41 205l-74.72.28 9.87 21.72 66.38-10.51c4.79-.05 14.89-3.14 16.3-3.72 1.7-.7 3.44-4.05 3.44-4.05s4.29-.2 5.09-.4a6.81 6.81 0 002.4-1.3c.4-.4-1.6-.7-1.6-.7a10.33 10.33 0 002.11-.8 1.49 1.49 0 00.9-1.8z" fill="#ffbe9d"/><path d="M431.94 207.26s7.67-4.89 8.81-5.87 2.28-2 2.45 0-2 4.57-2 4.57l-4.41 3.75" fill="#ffbe9d"/><path d="M436.83 209.71a7.2 7.2 0 011.13-1.13c.74-.68 1.82-1.64 3.14-2.79a12 12 0 001.54-2.67 4.35 4.35 0 00.33-1.59c0-.54-.15-1.22-.55-1a11.55 11.55 0 00-2 1.42c-.66.48-1.32.91-1.95 1.33-1.25.82-2.39 1.54-3.35 2.14s-1.75 1.07-2.3 1.39a3.73 3.73 0 01-.88.44 3.41 3.41 0 01.77-.62l2.21-1.52 3.29-2.23c.61-.42 1.26-.87 1.91-1.34a10 10 0 012.12-1.51.88.88 0 01.65.05.89.89 0 01.39.48 2.87 2.87 0 01.18 1 4.74 4.74 0 01-.39 1.79 11.61 11.61 0 01-1.66 2.75c-1.34 1.11-2.46 2-3.26 2.66a8 8 0 01-1.32.95zm20.68-6.17a11.74 11.74 0 01-4.16 1.9 12 12 0 01-4.54.68c0-.15 2-.46 4.39-1.18s4.25-1.54 4.31-1.4zm.18 2.64a11 11 0 01-3.25.67 10.64 10.64 0 01-3.31.15 10.72 10.72 0 013.24-.67 10.34 10.34 0 013.32-.15z" fill="#eb996e"/><path d="M450.2 210.52c-.12-.09.36-1 .89-2s1-2 1.09-1.92-.06 1-.62 2.16-1.25 1.84-1.36 1.76z" fill="#eb996e"/><path d="M273.35 226.94a4.81 4.81 0 01-4.45-1.15 12.5 12.5 0 01-2.74-3.9c-1.65-3.22-3.06-6.7-3-10.32s2-7.39 5.41-8.71c3.56-1.39 7.87.44 9.94 3.66a12.56 12.56 0 01.77 11 23.92 23.92 0 01-6.73 9.16" fill="#ff725e"/><path d="M273.35 226.94a4.81 4.81 0 01-4.45-1.15 12.5 12.5 0 01-2.74-3.9c-1.65-3.22-3.06-6.7-3-10.32s2-7.39 5.41-8.71c3.56-1.39 7.87.44 9.94 3.66a12.56 12.56 0 01.77 11 23.92 23.92 0 01-6.73 9.16" opacity=".4"/><path d="M205.94 205l-12.33-1.23s-10.43-1.1-13.53-2.2c0 0-1.7.1-1.3 1.1l.4 1s-3.4-.32-3.4.09a1.49 1.49 0 00.9 1.81 10.14 10.14 0 002.1.8s-2 .3-1.6.7a6.81 6.81 0 002.4 1.3c.8.2 5.1.4 5.1.4s1.73 3.35 3.43 4.05c1.42.58 11.51 3.67 16.3 3.72l70.08 11.09 6.17-22.36z" fill="#ffbe9d"/><path d="M204.41 207.26s-7.66-4.89-8.81-5.87-2.28-2-2.44 0 2 4.57 2 4.57l4.41 3.75" fill="#ffbe9d"/><path d="M199.52 209.71a8 8 0 01-1.29-.93c-.79-.63-1.92-1.55-3.26-2.66a11.61 11.61 0 01-1.66-2.75 4.73 4.73 0 01-.38-1.79 2.63 2.63 0 01.17-1 .93.93 0 01.39-.48.88.88 0 01.65-.05 10 10 0 012.12 1.51c.65.47 1.3.92 1.91 1.34l3.29 2.23 2.21 1.52a3.41 3.41 0 01.77.62 3.73 3.73 0 01-.88-.44c-.55-.32-1.33-.79-2.3-1.39s-2.1-1.32-3.35-2.14c-.63-.42-1.28-.85-1.95-1.33a11.55 11.55 0 00-2-1.42c-.39-.2-.53.48-.55 1a4.16 4.16 0 00.34 1.59 11.59 11.59 0 001.53 2.67c1.31 1.15 2.39 2.11 3.13 2.79a7.2 7.2 0 011.11 1.11zm-20.68-6.17c.07-.14 1.92.7 4.31 1.4s4.4 1 4.39 1.18a12 12 0 01-4.53-.68 11.73 11.73 0 01-4.17-1.9zm-.18 2.64a10.35 10.35 0 013.32.15 10.84 10.84 0 013.25.67 10.71 10.71 0 01-3.32-.15 11.14 11.14 0 01-3.25-.67z" fill="#eb996e"/><path d="M186.16 210.52c-.12.08-.81-.67-1.37-1.78a3.93 3.93 0 01-.62-2.16c.14 0 .54.85 1.09 1.92s1.02 1.93.9 2.02z" fill="#eb996e"/><path d="M349.44 274.41c-1.31-2.9-4.31-4.69-7.33-5.68-9.16-3-19.3-.26-28.69-2.4-3.7-.84-7.18-2.42-10.78-3.62s-7.45-2-11.17-1.32a14 14 0 00-8.49 5.28 12.18 12.18 0 00-2.37 6.14v-.12a2 2 0 000 .25 16.43 16.43 0 000 3.06v-.25a8.88 8.88 0 002.33 5 23.66 23.66 0 006.26 5.18c8 4.66 17.43 6.2 26.67 6.92 9.47.75 19.63.57 27.57-4.64a15.84 15.84 0 005.6-5.87 9.32 9.32 0 00.4-7.93z" fill="#ff725e"/><path d="M349.44 274.41c-1.31-2.9-4.31-4.69-7.33-5.68-9.16-3-19.3-.26-28.69-2.4-3.7-.84-7.18-2.42-10.78-3.62s-7.45-2-11.17-1.32a14 14 0 00-8.49 5.28 12.18 12.18 0 00-2.37 6.14v-.12a2 2 0 000 .25 16.43 16.43 0 000 3.06v-.25a8.88 8.88 0 002.33 5 23.66 23.66 0 006.26 5.18c8 4.66 17.43 6.2 26.67 6.92 9.47.75 19.63.57 27.57-4.64a15.84 15.84 0 005.6-5.87 9.32 9.32 0 00.4-7.93z" opacity=".4"/><path d="M339.57 426.24a11.62 11.62 0 00.6 8.56 28.57 28.57 0 005 7.19c1.86 2.1 3.95 4.73 3.07 7.38a4.9 4.9 0 01-3.35 3 9.75 9.75 0 01-4.62 0c-7.53-1.49-13.41-7.19-18.83-12.63a17.6 17.6 0 01-3.66-4.6 6 6 0 010-5.67l2.35-7.36z" fill="#ff725e"/><path d="M344.45 441.05a12.59 12.59 0 00-10.31 2.56s.34-.55 1.14-1.19a9.72 9.72 0 013.61-1.73 9.87 9.87 0 014-.16 3.8 3.8 0 011.56.52zm-3.16-3.65a10.35 10.35 0 00-9.37 1.16s.32-.49 1.09-1a8.17 8.17 0 013.39-1.22 8 8 0 013.58.36c.87.3 1.34.64 1.31.7zm-4.77-1.58a1.8 1.8 0 01-.77 0 7.08 7.08 0 01-2-.44 8.31 8.31 0 01-3.9-3 3.26 3.26 0 01-.76-1.94 1.05 1.05 0 01.77-.94 1.61 1.61 0 011.1.16 7.15 7.15 0 011.5 1.12 10.27 10.27 0 011.92 2.44 9 9 0 01.82 1.92 1.86 1.86 0 01.14.75c-.09 0-.36-1-1.28-2.48a10.88 10.88 0 00-1.92-2.27 6.7 6.7 0 00-1.4-1 1.19 1.19 0 00-.74-.12.52.52 0 00-.39.49 2.86 2.86 0 00.66 1.6 8.09 8.09 0 001.13 1.32 8.79 8.79 0 002.49 1.62 16 16 0 002.63.77z" fill="#e0e0e0"/><path d="M335 436.33a5.45 5.45 0 01.26-2.3 11.2 11.2 0 01.9-2.36 9.51 9.51 0 01.78-1.3 1.55 1.55 0 011.64-.69 1.06 1.06 0 01.68.76 1.92 1.92 0 01-.05.9 6.61 6.61 0 01-.65 1.39 9.64 9.64 0 01-1.56 2 5 5 0 01-1.91 1.33c-.05-.07.7-.55 1.64-1.58a11 11 0 001.42-2 7 7 0 00.57-1.28c.13-.45.06-.93-.3-1a1.06 1.06 0 00-1.08.5 11.09 11.09 0 00-.76 1.21 13.92 13.92 0 00-1 2.24c-.41 1.32-.51 2.19-.58 2.18z" fill="#e0e0e0"/><path d="M347.23 449.38s-.09.1-.29.25a7 7 0 01-1 .51 8.43 8.43 0 01-3.93.6 14.32 14.32 0 01-5.62-1.8 55.82 55.82 0 01-6.05-3.91 65 65 0 01-5.56-4.57 24.71 24.71 0 01-3.93-4.38 11.34 11.34 0 01-1.66-3.61 7 7 0 01-.17-1.07v-.38a12.82 12.82 0 002.13 4.85 26.09 26.09 0 004 4.24c1.63 1.47 3.5 3 5.54 4.5a59.78 59.78 0 006 3.9 14.29 14.29 0 005.42 1.86 8.76 8.76 0 003.83-.42c.84-.31 1.26-.61 1.29-.57z" fill="#263238"/><path d="M297.75 375.16c.92 2.16.07 10.34 2.14 14.31s4.51 6.86 9.23 7.37c2.57.28 5.7-.36 7-2.6a7.65 7.65 0 00.62-4.25c-.24-4.72-.6-14.63-.83-19.35" fill="#ff725e"/><path d="M316.39 374.89a1.81 1.81 0 01.06.52c0 .4.05.89.08 1.49 0 1.38.09 3.24.16 5.51 0 1.17.06 2.44.09 3.8a34.27 34.27 0 01-.06 4.39 7.94 7.94 0 01-1.82 4.55 7 7 0 01-4.8 2.13 8.66 8.66 0 01-5.07-1.37 12.68 12.68 0 01-3.49-3.43 20.41 20.41 0 01-3.41-13.1 15 15 0 01.19-1.49 2 2 0 01.13-.51c.05 0-.07.72-.12 2a21.82 21.82 0 00.45 5.44 20 20 0 003.15 7.37 12.13 12.13 0 003.38 3.27 8.09 8.09 0 004.77 1.29 6.52 6.52 0 004.44-1.95 7.47 7.47 0 001.72-4.26 35.42 35.42 0 00.11-4.33V375.4a2.66 2.66 0 01.04-.51z" fill="#263238"/><path d="M353.76 287.32s-2.82-12.62-4.44-19.1-7.09-10.9-12.51-14.81c-4.08-2.94-9.26-3.8-14.25-4.45q-8.71-1.14-17.48-1.73c-2.6-.18-5.4-.27-7.59 1.14-2.81 1.82-3.67 5.45-4.3 8.73-2.11 10.88-3.59 18.52-5.69 29.4a309.55 309.55 0 0066.26.82z" fill="#ffbe9d"/><path d="M287.68 254a16.49 16.49 0 01-2.92 9.42c-8 11.7-3 15.77-3 15.77 11.92-18.21 16.67-.57 41.45-.09s32.66 5.75 34.67 2.11-3.09-19.11-4.07-27.85c-1.14-10.33-3-17 .34-22.75 1.7-3 20.65-4.33 20.65-4.33l-4.58-20.87a3.19 3.19 0 00-3-2.5c-24.31-1.11-35.94-.48-35.94-.48-10.2 6.32-27.83-1.57-27.83-1.57s-3.35-.22-10.88 0-17.86.25-23.2.71-4.25 3.62-4.25 3.62 9.35-3.52 12.44 2.1c3.49 6.35-6.36 17.75-5.41 20.76.48 1.52 3.89 1.87 6.76 1.59a7.81 7.81 0 018.57 7.66c.1 5.78.16 12.21.2 16.7z" fill="#ff725e"/><path d="M351 168.64c.2-3.64 1.43-7.17 1.35-10.81-.13-6.4-4.21-11.87-8.36-16.51a32.7 32.7 0 00-7.95-7 9.44 9.44 0 00-11.14 1.84c-1.93 8.07-4.36 16.06-5.11 24.35s.39 17.11 5 23.84c2.05 3 5 5.63 8.46 6 2.66.3 5.29-.73 7.72-1.9 4-1.94 8.2-4.72 9.57-9.21 1-3.35.23-7.04.46-10.6z" fill="#263238"/><path d="M257.82 198.05c2.46-.85 3.51-2.27 5.59-3.91s4.42-3.15 7-3.23c5.06-.15 9.5 5.24 14.45 4.09 4-.93 6.37-5.81 10.37-6.73 4.2-1 8.07 2.8 12.34 3.25 4.46.46 8.46-2.69 11.94-5.7s7.39-6.24 11.87-6l-2.89-42c-4.53-4-10.89-5-16.62-3.74s-10.9 4.59-15.43 8.55c-3.18 2.79-6.52 6.09-10.64 6.15-3.83.06-7.26-2.79-11.09-3-4.18-.24-7.5 4.31-10.6 8a11.54 11.54 0 01-7.6 4.12 8.36 8.36 0 01-4.11-.56l2.06 15.39a7.29 7.29 0 005.47-.45 17.39 17.39 0 003.91-2.66 13.73 13.73 0 01-2.6 3.84c-1.46 1.3-5.69 2.09-5.69 2.09L257 188.5l5.63-1.27-5 3.81-.67 6.51" fill="#263238"/><path d="M345.91 158.77v-.34A21.33 21.33 0 00324 137.78l-1.73.09a25.93 25.93 0 00-2.74.35 21.24 21.24 0 00-17.12 21.28c.1 8.36.32 19.51.8 22.81a45.42 45.42 0 01.67 7.46l.3 12.82A14.12 14.12 0 00318 216.37a14.12 14.12 0 0014.46-14.09v-6.62c8.71-1.12 12.72-9.53 13.3-19.58.29-5.35.53-5.76.15-17.31z" fill="#ffbe9d"/><path d="M303 166.7c-.23-.1-9.35-2.84-9.13 6.49s9.55 7.18 9.56 6.91-.43-13.4-.43-13.4z" fill="#ffbe9d"/><path d="M300.51 176.63s-.16.12-.43.25a1.64 1.64 0 01-1.22.06c-1-.34-1.86-1.88-1.95-3.56a5.34 5.34 0 01.4-2.34 1.89 1.89 0 011.19-1.28.82.82 0 011 .42c.13.26.08.45.13.46s.2-.16.11-.54a1 1 0 00-.38-.58 1.25 1.25 0 00-.91-.22 2.3 2.3 0 00-1.66 1.49 5.56 5.56 0 00-.5 2.62c.11 1.88 1.11 3.61 2.47 4a1.75 1.75 0 001.48-.28c.26-.27.3-.48.27-.5z" fill="#eb996e"/><path d="M340.45 166.21c-.26.26-1.79-.89-4-.9s-3.8 1.07-4 .8.15-.59.85-1.1a5.63 5.63 0 013.23-1 5.36 5.36 0 013.16 1.05c.66.55.88 1.03.76 1.15zm-21.82.18c-.25.26-1.78-.89-4-.9s-3.8 1.07-4 .8c-.12-.12.14-.59.85-1.1a5.6 5.6 0 013.23-1 5.38 5.38 0 013.16 1.05c.66.55.89 1.03.76 1.15zm-.48-9.49c-.12.47-1.44.52-2.89 1s-2.58 1.12-2.94.8c-.16-.16-.06-.58.35-1.09a4.54 4.54 0 012.1-1.33 4.44 4.44 0 012.49-.07c.62.17.94.47.89.69zm22.42.1c-.34.5-1.59.58-2.79.17s-1.9-1.13-1.56-1.64 1.58-.58 2.78-.17 1.9 1.12 1.57 1.64zm-16.18 23.6c0 .13-.26.36-.84.44a3.07 3.07 0 01-3.34-2.54c-.08-.57.07-.92.2-.92s.5 1.23 1.59 2 2.33.75 2.39 1.02z" fill="#263238"/><path d="M332.44 195.66s-11.18.18-13.82-1.75c0 0 2 5.42 13.82 4.85z" fill="#eb996e"/><path d="M328.62 169.1c.14 0 .4.45.7 1.26.16.4.33.88.5 1.43.08.27.17.56.25.85a4 4 0 01.23 1.05 1.64 1.64 0 01-.44 1.25 1.8 1.8 0 01-1.06.52 2.09 2.09 0 01-1-.08 2.79 2.79 0 01-.71-.38c-.75-.6-1-1.1-.9-1.19s.57.23 1.27.57a1.69 1.69 0 001.17.17 1 1 0 00.5-.29.68.68 0 00.16-.53 4.29 4.29 0 00-.17-.82c-.07-.3-.14-.59-.2-.87-.12-.56-.22-1.07-.29-1.5-.13-.85-.14-1.4-.01-1.44z" fill="#263238"/><path d="M313.86 174.44c-.1 0-.13-.23-.08-.48s.17-.44.26-.42.12.23.07.48-.11.44-.25.42zm3.9-.81c-.09 0-.2-.07-.25-.22s0-.3.06-.33.21.07.26.22.02.3-.07.33zm-1.98 2.37c-.09 0-.19-.19-.21-.44s0-.46.12-.47.19.19.21.44-.03.47-.12.47zm-4.92-.47c-.09 0-.1-.25 0-.5s.21-.43.3-.4.1.25 0 .5-.16.43-.3.4zm25.97-1.99c-.09 0-.19-.17-.21-.39s0-.42.12-.43.19.16.21.39-.03.42-.12.43zm3.65-.1c-.09 0-.17-.2-.17-.45s.08-.45.17-.45.17.2.17.45-.08.45-.17.45zm3.02-.18c-.09 0-.2-.17-.25-.42s0-.47.07-.49.21.17.26.42.01.47-.08.49zm-4.75 3.27c-.09 0-.1-.25 0-.5s.21-.43.3-.4.1.25 0 .5-.21.43-.3.4zm3.44-.45c-.09 0-.19-.14-.21-.34s0-.37.12-.39.19.15.21.35-.03.37-.12.38z" fill="#eb996e"/><path d="M301.63 168.74c3.59.25 6.08-4.16 7.39-7.58 1-2.54.81-5.57 2.44-7.72a8.37 8.37 0 015-2.77 58.13 58.13 0 005.7-1.16 12.12 12.12 0 007.82-8.67 3.05 3.05 0 00-.52-3 3.31 3.31 0 00-2.34-.51 51.51 51.51 0 00-12.2 1.49 17.58 17.58 0 00-10 6.84c-1.57 2.38-2.34 5.2-3.35 7.88s-2.38 5.37-4.72 7c-4.64 3.16-11.39.93-16 4.08-2.82 1.91-4.18 5.36-5.38 8.59-.67 1.81-1.23 4.14.17 5.45a3.1 3.1 0 002.91.55c1-.28 4.45-.06 5.23-.74 4.1-3.61 4.63-8.39 9.88-9.74 3.52-.91 6.32 1.82 9.42-.1" fill="#263238"/><path d="M329.26 138a44 44 0 0016.13 16.09c.46.26 1.18.45 1.41 0a1 1 0 000-.7 26.9 26.9 0 00-11.24-14.54 9.55 9.55 0 00-3.34-1.44 4.17 4.17 0 00-3.44.83" fill="#263238"/><path d="M284.74 178.28a2.91 2.91 0 01.07-.71 4.69 4.69 0 01.82-1.88 7.15 7.15 0 012.46-2.14 10.06 10.06 0 014.15-1.11 41.64 41.64 0 015.19.09 16.86 16.86 0 005.81-.52 7.36 7.36 0 002.7-1.5 8.18 8.18 0 001.92-2.59 26.28 26.28 0 001.82-6.71 16.83 16.83 0 012.43-6.67 7.56 7.56 0 012.58-2.27 10.83 10.83 0 013.12-1c2.08-.37 4.08-.44 5.85-.89a7.32 7.32 0 004.22-2.57 10 10 0 001.75-3.79 22 22 0 00.52-3.15c.09-.88.13-1.57.16-2a5.16 5.16 0 01.07-.71 3.61 3.61 0 010 .71c0 .47 0 1.16-.07 2a20.41 20.41 0 01-.44 3.21 10.18 10.18 0 01-1.74 3.94 7.69 7.69 0 01-4.4 2.77c-1.83.48-3.84.57-5.87.94a10.58 10.58 0 00-3 1 7 7 0 00-2.4 2.12 16.64 16.64 0 00-2.34 6.48 26.33 26.33 0 01-1.87 6.83 8.76 8.76 0 01-2.05 2.75 7.87 7.87 0 01-2.89 1.57 17 17 0 01-6 .5 41.7 41.7 0 00-5.14-.15 9.78 9.78 0 00-4 1 7.14 7.14 0 00-2.42 2 5.85 5.85 0 00-1.01 2.45zm-26.17-30.9a4.79 4.79 0 01.46-.55c.31-.35.77-.86 1.39-1.49a24.06 24.06 0 015.93-4.62 11.54 11.54 0 015.06-1.3 16.07 16.07 0 015.86 1.27c2 .75 3.93 1.75 6.06 2.51a13.11 13.11 0 006.78.82 11.93 11.93 0 005.82-3.53 48 48 0 014.83-4.49 19.11 19.11 0 0110.48-3.62 18.88 18.88 0 017.42 1.13 15 15 0 011.87.85 3.09 3.09 0 01.61.36c0 .05-.88-.45-2.54-1a19.56 19.56 0 00-7.34-.95 18.84 18.84 0 00-10.21 3.64 45.63 45.63 0 00-4.76 4.47 12.34 12.34 0 01-6.08 3.67 13.48 13.48 0 01-7-.85c-2.17-.78-4.13-1.79-6.06-2.54a15.9 15.9 0 00-5.69-1.29 11.28 11.28 0 00-4.9 1.2 25.73 25.73 0 00-5.95 4.43l-1.46 1.42a3 3 0 01-.58.46z" fill="#263238"/><path d="M329 133.63c-5.84-3-10.83-3.53-17-1.35a24.34 24.34 0 00-14.51 32.06c3.37-5.05 3.18-11.72 5.89-17.16a17.67 17.67 0 018.32-8.06c6.19-2.85 12-1.24 17.32-5.49" fill="#ff725e"/><path d="M310.82 134.78s.94-25.13 2.25-24.54 8.69 23.67 8.69 23.67-5.41 4.18-10.94.87z" fill="#ff725e"/><path d="M310.82 134.78s.94-25.13 2.25-24.54 8.69 23.67 8.69 23.67-5.41 4.18-10.94.87z" fill="#fff" opacity=".6"/><path d="M319.47 126.66a1.91 1.91 0 01-.1.45 8.43 8.43 0 01-.44 1.17 9.47 9.47 0 01-2.49 3.27 8.28 8.28 0 01-3.71 1.76 6.75 6.75 0 01-1.25.13 1.25 1.25 0 01-.46 0s.66 0 1.68-.23a8.65 8.65 0 003.6-1.78 10 10 0 002.49-3.17c.47-.98.65-1.61.68-1.6zm-1.72-4.82a1.37 1.37 0 010 .42 5.07 5.07 0 01-.21 1.11 7.78 7.78 0 01-1.89 3.21 10.27 10.27 0 01-3.06 2.13 11.23 11.23 0 01-1.06.41l-.4.1s.55-.22 1.39-.64a11.42 11.42 0 003-2.15 8.09 8.09 0 001.9-3.1c.26-.9.29-1.49.33-1.49zm-1.53-4.49a.94.94 0 010 .31 5.12 5.12 0 01-.13.84 6 6 0 01-1.24 2.49 5.86 5.86 0 01-2.23 1.66 4.66 4.66 0 01-.8.27.92.92 0 01-.31 0s.42-.14 1.05-.45a6.41 6.41 0 003.39-4.06c.2-.63.23-1.07.27-1.06zm-1.29-3.43a2.93 2.93 0 01-.91 2.22 2.85 2.85 0 01-2.19 1 4.58 4.58 0 002-1.1 4.69 4.69 0 001.1-2.12zm-1.16-2.51a1.38 1.38 0 01-1.39 1.56 3.16 3.16 0 00.9-.6 3.21 3.21 0 00.49-.96z" fill="#fff"/><path d="M257.53 177.7s.25.14.73.32a4.9 4.9 0 002.22.26 7.48 7.48 0 003.31-1.24 13.15 13.15 0 003.28-3.39 38.62 38.62 0 013.57-4.64 15.51 15.51 0 0113.06-4.4c2.57.35 5.11 1.21 7.78 1.34a8.23 8.23 0 003.8-.69 7.63 7.63 0 002.86-2.42 16.79 16.79 0 002.69-6.7 41.54 41.54 0 011.69-6.49 20.91 20.91 0 012.89-5.1 20.65 20.65 0 016.39-5.55 17.18 17.18 0 012.07-1 4.36 4.36 0 01.76-.26 4.17 4.17 0 01-.71.36 18.09 18.09 0 00-2 1.06 21.36 21.36 0 00-6.2 5.55 21.12 21.12 0 00-2.78 5 43 43 0 00-1.62 6.44 17.28 17.28 0 01-2.75 6.91 8.25 8.25 0 01-3.05 2.58 8.71 8.71 0 01-4 .74c-2.78-.14-5.32-1-7.83-1.35a14.85 14.85 0 00-7.15.73 15 15 0 00-5.53 3.47 39.59 39.59 0 00-3.58 4.54 13 13 0 01-3.42 3.42 7.57 7.57 0 01-3.45 1.2 4.73 4.73 0 01-2.28-.37 2.56 2.56 0 01-.75-.32zm1.39 7.61s.08-.14.27-.37a9.17 9.17 0 01.94-.93 12.45 12.45 0 014.23-2.43 12.7 12.7 0 013.32-.65 19.21 19.21 0 013.87.27c1.34.21 2.73.48 4.18.58a8.22 8.22 0 004.3-.71 8.9 8.9 0 003.22-3 39.65 39.65 0 002.16-3.62 26.6 26.6 0 012-3.28 9.64 9.64 0 012.47-2.33 6.65 6.65 0 014.77-.85 5.53 5.53 0 011.27.39c.28.12.41.2.4.22a14.52 14.52 0 00-1.71-.41 6.6 6.6 0 00-4.53 1 9.63 9.63 0 00-2.33 2.28 28.23 28.23 0 00-2 3.25 41.24 41.24 0 01-2.16 3.68 9.29 9.29 0 01-3.41 3.13 8.64 8.64 0 01-4.57.76c-1.49-.11-2.89-.39-4.22-.61a18.58 18.58 0 00-3.77-.32 13.09 13.09 0 00-3.23.57 13.53 13.53 0 00-4.21 2.23c-.81.71-1.18 1.18-1.26 1.15z" fill="#455a64"/><path d="M297.9 165.09a10.37 10.37 0 001.7-.48 7.93 7.93 0 003.47-3.19 20.5 20.5 0 002.14-6.78 30.23 30.23 0 011-4.17 10.86 10.86 0 012.34-4 10.43 10.43 0 013.94-2.47 23.54 23.54 0 014.17-1.08c1.35-.25 2.63-.43 3.8-.67a21.4 21.4 0 003.22-.87 10.53 10.53 0 004.09-2.45c.79-.81 1.08-1.39 1.13-1.36s-.05.15-.2.42a5.45 5.45 0 01-.7 1.01 10.24 10.24 0 01-4.1 2.66 23 23 0 01-3.26 1c-1.19.26-2.47.45-3.8.71a25.69 25.69 0 00-4.08 1.08 10.26 10.26 0 00-3.76 2.35 10.43 10.43 0 00-2.23 3.84 32.37 32.37 0 00-1.05 4.09 20.37 20.37 0 01-2.3 6.89 7.8 7.8 0 01-3.71 3.17 5 5 0 01-1.3.31 1.53 1.53 0 01-.51-.01zm49.97 5.42a13.87 13.87 0 01.46-1.69c.31-1.07.8-2.62 1.18-4.58a16.46 16.46 0 000-6.9 10.87 10.87 0 00-1.6-3.7 11.34 11.34 0 00-3.22-2.92 17.72 17.72 0 01-1.83-1.4 10.74 10.74 0 01-1.48-1.7 24.44 24.44 0 01-2-3.68 18.68 18.68 0 00-3.59-5.92 6.71 6.71 0 00-4.12-2 7.27 7.27 0 00-1.71.15 1.48 1.48 0 01.42-.18 4.43 4.43 0 011.3-.17 6.73 6.73 0 014.36 1.88 18.67 18.67 0 013.78 6 23.71 23.71 0 002 3.59 11.33 11.33 0 003.18 3 20.41 20.41 0 011.84 1.37 9.51 9.51 0 011.5 1.68 11.16 11.16 0 011.66 3.9 16.32 16.32 0 01-.12 7.08 37.09 37.09 0 01-1.35 4.57c-.18.47-.33.87-.45 1.21a1.46 1.46 0 01-.21.41zm-27.1-39.67a3.87 3.87 0 00.85-.05 4.23 4.23 0 001.95-1.19 7.55 7.55 0 013.07-1.91 7.35 7.35 0 014.43 0 5.22 5.22 0 012 1.15 2.58 2.58 0 01.9 2.05 3.06 3.06 0 01-.89 1.8 8.84 8.84 0 01-1.3 1.09 8.7 8.7 0 01-2.18 1.07 2.25 2.25 0 01-.86.19 17.67 17.67 0 002.82-1.56 7.91 7.91 0 001.2-1.08 2.62 2.62 0 00.73-1.54 2.13 2.13 0 00-.77-1.65 5 5 0 00-1.85-1 7.1 7.1 0 00-4.13 0 7.64 7.64 0 00-3 1.72 4 4 0 01-2.16 1.12c-.53 0-.83-.19-.81-.21z" fill="#455a64"/><path d="M344.33 255.24a4.21 4.21 0 01-.14.69 19.35 19.35 0 01-.6 1.91A23.49 23.49 0 01331.43 271a24.06 24.06 0 01-13.14 1.92c-4.78-.65-8.85-2.88-12.49-4.67-1.83-.92-3.58-1.76-5.26-2.43a27.52 27.52 0 00-4.81-1.41 16 16 0 00-7.21.13 21.13 21.13 0 00-2.5.93 9 9 0 012.45-1.13 15.52 15.52 0 017.32-.29 27.28 27.28 0 014.91 1.37c1.71.66 3.47 1.5 5.31 2.4 3.66 1.78 7.69 4 12.35 4.58a23.7 23.7 0 0012.87-1.84 23.25 23.25 0 008.46-6.51 24.28 24.28 0 003.71-6.24c.33-.79.55-1.43.69-1.86a3.73 3.73 0 01.24-.71zM281.08 223a19.61 19.61 0 016.94 7.88c-.13.08-1.41-1.9-3.33-4.07s-3.69-3.73-3.61-3.81zm76.44-2.41a59.64 59.64 0 00-4.29 5 61.41 61.41 0 00-3.26 5.73 5.6 5.6 0 01.56-1.88 21.15 21.15 0 012.28-4.15 20.89 20.89 0 013.13-3.56 5.89 5.89 0 011.58-1.14z" fill="#263238"/><path d="M311.72 237.32c0-.66.23-1 .53-1.17a.9.9 0 01.39-.1.66.66 0 01.63.4 1.45 1.45 0 01.16.78 11.51 11.51 0 000 1.16l.09 2.07v.76c.09.71.16 1.23.21 1.58a9 9 0 01.07 1.58 1.29 1.29 0 01-.23.73.79.79 0 01-.66.32 1.15 1.15 0 01-.39-.07.86.86 0 01-.57-.67 4.35 4.35 0 01-.09-.94l-.07-1.92c0-.58-.27-.85-.75-.8a6.69 6.69 0 01-1.16.06q-.46 0-.48.69c0 .5 0 1 .05 1.62s0 1 0 1.35c0 .66-.4.92-1.15.79a1 1 0 01-.58-.25.82.82 0 01-.18-.59v-.63q0-.28-.06-1.38l-.11-2.17c-.05-.88-.08-1.56-.09-2v-1.34q.11-.91.57-1a1.08 1.08 0 01.36-.07c.42 0 .71.36.88 1.07a4.78 4.78 0 01.13 1.13 3.44 3.44 0 000 .9c.08.2.33.31.76.32h1a.64.64 0 00.57-.69c.16-.84.16-1.37.17-1.52zm8.15.89a3.9 3.9 0 01-.79.06h-1a2.69 2.69 0 00-.91.16.88.88 0 00-.56.5 5 5 0 00-.13.75c0 .15 0 .42.05.81s.28.64.62.68a5.93 5.93 0 00.87 0 7 7 0 01.92 0h.67a1.17 1.17 0 01.56.19.61.61 0 01.29.5 2.82 2.82 0 010 .42.59.59 0 01-.18.25 1.58 1.58 0 01-1 .16c-.48 0-.83-.08-1.07-.09h-1.08c-.18 0-.31.14-.37.43a.57.57 0 00.09.57 1 1 0 00.48.24 6 6 0 001.54.09c.83-.07 1.32.09 1.45.48a1.1 1.1 0 010 .27c0 .58-.37.87-1.1.87h-.73c-1.08-.09-1.74-.16-2-.2a1.7 1.7 0 01-1.54-1.83c0-1.05-.05-2-.11-2.73v-.86a11 11 0 01.2-2c.18-.93.91-1.5 2.19-1.69a5.62 5.62 0 01.92-.09 6.22 6.22 0 011.76.3 1 1 0 01.46.47 1.18 1.18 0 01.13.66 1.47 1.47 0 010 .22.89.89 0 01-.63.41zm5.02-2.16a10.78 10.78 0 012.33.13 1.79 1.79 0 011.64 1.38 4.3 4.3 0 01.12.91 1.61 1.61 0 01-.19.82 2.88 2.88 0 01-2.68 1.37h-1.66c-.18 0-.1 0-.1.06s.07.18.21.34c.47.5.85.93 1.16 1.3.43.52.76.9 1 1.15a2.44 2.44 0 01.69 1.27.76.76 0 01-.5.69.8.8 0 01-.36.09 1.69 1.69 0 01-1.19-.65 5 5 0 01-.79-1.16l-1.15-2.3c.13 1.3.2 2.09.19 2.36v.81a1.47 1.47 0 01-.11.51.74.74 0 01-.33.38 1.43 1.43 0 01-.5.11c-.44.05-.66-.31-.66-1.1a3.4 3.4 0 01-.06-.52c-.1-1.49-.14-2.76-.13-3.79v-1.47q.07-1.57.72-2a4.38 4.38 0 012.35-.69zm0 1.5a1.2 1.2 0 00-.67.2.94.94 0 00-.46.81q0 .67.72.72 1.44.08 1.59-.63a.75.75 0 00-.45-.93 1.8 1.8 0 00-.73-.17zm6.47 7.64a4.84 4.84 0 00.85.26c.23-.54.46-1.08.72-1.61a1.36 1.36 0 01-.29 0c-.51-.09-.83-.58-1-1.48a8.9 8.9 0 01-.12-1.43 10.07 10.07 0 01.09-1.31c.11-.93.38-1.45.8-1.56a2.13 2.13 0 011.12 0c.35.11.61.47.77 1.1a5.43 5.43 0 01.15.94c.38-1 .79-2 1.25-3a2 2 0 00-.42-.48 2.19 2.19 0 00-.76-.43 5.69 5.69 0 00-.93-.13h-.63c-1.63 0-2.6.55-2.91 1.64a7.74 7.74 0 00-.35 2.16v1.44a6.63 6.63 0 00.14 1.42l.31 1.18a1.28 1.28 0 00.42.79 2.12 2.12 0 00.79.5z" fill="#fff"/><path d="M336.55 241.5c-.05-.45-.08-.77-.09-1a4.22 4.22 0 00-.32-1.28 1.82 1.82 0 00-.54-.67 2 2 0 00-.45-.3l-.12.34a4.79 4.79 0 01-.21.64v.05s0 .08-.05.12a8.71 8.71 0 01-.41.93 2.3 2.3 0 01.3.7 5.76 5.76 0 01.17 1.42c0 .33 0 .69-.06 1.09-.11 1.11-.31 1.77-.61 2a1.31 1.31 0 01-.78.23 3 3 0 01-.42 0c-.39-.07-.67-.38-.84-.92-.21.52-.44 1-.68 1.53a4 4 0 01-.25.45 1.75 1.75 0 00.5.32 4.9 4.9 0 00.86.26c.13 0 .42.05.87.09h.29a3.77 3.77 0 001.25-.21 1.81 1.81 0 001.15-.94 4.16 4.16 0 00.26-.74 23.91 23.91 0 00.28-3.14 7.87 7.87 0 00-.1-.97zm3.54-.26a14.1 14.1 0 01-.1 2c-.14 1-.4 1.55-.77 1.55a.81.81 0 01-.72-.45 1.71 1.71 0 01-.23-.87c0-1-.06-2.15-.18-3.62v-.41c0-.9.3-1.37.89-1.38a.76.76 0 01.79.42 3.05 3.05 0 01.3.88c0 .17.02.81.02 1.88zm-1.1 6.24c-.47-.16-.71-.43-.71-.83a1.61 1.61 0 01.12-.56c.23-.55.53-.82.91-.82a1 1 0 01.36.07.85.85 0 01.63.84 1.43 1.43 0 01-.06.39c-.17.6-.4.91-.7.94a1.2 1.2 0 01-.54-.03z" fill="#fff"/><path d="M338.39 229.65a2.25 2.25 0 01-.11.57c-.09.36-.22.91-.42 1.6-.39 1.38-1 3.37-1.94 5.78a53.37 53.37 0 01-3.91 8.17 40.08 40.08 0 01-6.85 8.72 30.92 30.92 0 01-9.32 6 26.32 26.32 0 01-8.83 2 20.69 20.69 0 01-6.08-.59 12.4 12.4 0 01-1.59-.48 3.07 3.07 0 01-.54-.21c0-.05.78.2 2.18.5a22.57 22.57 0 006 .41 26.63 26.63 0 008.67-2.08 31.25 31.25 0 009.14-6 40.5 40.5 0 006.8-8.59 57.71 57.71 0 004-8.05c1-2.38 1.63-4.35 2.08-5.71.21-.64.38-1.16.52-1.57a2.08 2.08 0 01.2-.47z" fill="#263238"/><path d="M302.83 262.6a16.26 16.26 0 019.79-9.89c2.89-1 6-1.2 8.91-2.27 5.5-2.05 9.28-7 12.75-11.75a31 31 0 01-31.18 23.69" opacity=".2"/><path d="M353.76 282.44L325 285a31.51 31.51 0 01-7.26-.19l-29.13-4.15a39.9 39.9 0 00-4.49 17.53c0 21.31 5 63.15 7.22 69 3 7.83 9 14.37 15.92 13.17s15.06-6 13-20.48c-1.72-11.76.77-34.19 1.76-42.16l1 53.92-4 52.44 20.09 4.82 17.38-58.9 1.6-45.1a153.73 153.73 0 00-3.2-37.06z" fill="#263238"/><circle cx="296.24" cy="315.9" r="2.1" fill="#fff"/><circle cx="311.67" cy="334.39" r="2.1" fill="#fff"/><circle cx="308.61" cy="365.25" r="2.1" fill="#fff"/><circle cx="312.53" cy="299.65" r="2.1" fill="#fff"/><circle cx="342.69" cy="305.95" r="2.1" fill="#fff"/><circle cx="334.14" cy="330.62" r="2.1" fill="#fff"/><circle cx="346.97" cy="346.14" r="2.1" fill="#fff"/><path d="M345.93 382a2.1 2.1 0 11-3 0 2.1 2.1 0 013 0z" fill="#fff"/><circle cx="336.48" cy="414.79" r="2.1" fill="#fff"/><circle cx="336.48" cy="363.76" r="2.1" fill="#fff"/><circle cx="328.98" cy="392.88" r="2.1" fill="#fff"/><circle cx="297.75" cy="349.16" r="2.1" fill="#fff"/><path d="M329.94 306.16a8 8 0 01-.89 1.94c-.62 1.16-1.54 2.74-2.64 4.42s-2.16 3.16-3 4.19a8 8 0 01-1.41 1.6c-.12-.09 1.78-2.72 4-6.07s3.81-6.15 3.94-6.08zm2.39 3.45c.08.14-1.8 1.34-3.92 3.07s-3.68 3.32-3.79 3.22a14.36 14.36 0 013.46-3.62 14.76 14.76 0 014.25-2.67zm19.43-21.7a3 3 0 01-.6.16l-1.75.34c-.76.15-1.69.32-2.77.47s-2.32.37-3.7.51c-2.74.35-6 .63-9.67.82s-7.67.18-11.88 0-8.22-.6-11.84-1.08-6.86-1.09-9.56-1.69c-1.35-.27-2.56-.59-3.63-.84s-2-.51-2.72-.72l-1.7-.5a2.76 2.76 0 01-.59-.21 2.44 2.44 0 01.61.11l1.73.4c.75.19 1.67.41 2.74.63s2.28.52 3.64.77c2.7.55 5.93 1.09 9.54 1.57s7.6.84 11.8 1 8.21.16 11.84 0 6.91-.4 9.65-.7c1.38-.13 2.61-.31 3.7-.44s2-.26 2.78-.38l1.76-.25a3.52 3.52 0 01.62.03zm1.13 80.54a7.43 7.43 0 01-2.05 1.29 20.41 20.41 0 01-5.56 1.83 20.88 20.88 0 01-5.86.18 7.63 7.63 0 01-2.37-.52 33.73 33.73 0 008.14-.17 34.19 34.19 0 007.7-2.61zm-46.45 8.01a4.49 4.49 0 01-1.9 0 11.57 11.57 0 01-4.32-1.59 11.4 11.4 0 01-3.34-3.17 4.21 4.21 0 01-.88-1.7 15.31 15.31 0 011.14 1.48 13.1 13.1 0 007.43 4.62 12.71 12.71 0 011.87.36zm13.14-17.74a4.89 4.89 0 01.27 1.89 14.54 14.54 0 01-2.74 8.7 5.28 5.28 0 01-1.3 1.4 26.82 26.82 0 002.88-5.68 25.8 25.8 0 00.89-6.31z" fill="#455a64"/><path d="M311.75 387.54a17.52 17.52 0 00-3.88-.51 16.93 16.93 0 00-3.81.87 5.55 5.55 0 013.79-1.39 5.49 5.49 0 013.9 1.03zm.78-3.88a24.3 24.3 0 00-4.45-.46 24 24 0 00-4.39.89 8.78 8.78 0 018.84-.43z" fill="#e0e0e0"/><path d="M308.61 382.77a7.29 7.29 0 01-1.95-.15l-2.09-.31-1.22-.2a3.14 3.14 0 01-.71-.17.88.88 0 01-.54-.74.64.64 0 01.22-.5 1.24 1.24 0 01.37-.22 5.82 5.82 0 01.68-.2 4.15 4.15 0 011.31 0 3.85 3.85 0 012 .84 2.65 2.65 0 011.11 1.63 8.39 8.39 0 00-1.33-1.33 3.78 3.78 0 00-1.86-.67 3.85 3.85 0 00-1.16.08c-.35.08-.92.28-.85.4s.37.37.81.43l1.23.23 2.06.42a7.45 7.45 0 011.92.46z" fill="#e0e0e0"/><path d="M307.83 382.87a4.59 4.59 0 01.38-2.31 8.44 8.44 0 011.23-2.25 9 9 0 011-1.12 2.6 2.6 0 01.72-.49 1.07 1.07 0 011 .06 1 1 0 01.41.94 2.43 2.43 0 01-.25.84 8 8 0 01-.79 1.31 8.92 8.92 0 01-1.79 1.83 4.9 4.9 0 01-2.09 1.07c0-.08.79-.44 1.86-1.36a9.58 9.58 0 001.63-1.82 8.87 8.87 0 00.72-1.25c.21-.4.3-1 0-1.13s-.76 0-1.11.38a8.11 8.11 0 00-1 1 9.06 9.06 0 00-1.27 2.09c-.48 1.34-.56 2.22-.65 2.21z" fill="#e0e0e0"/><path d="M184 365.25a46.28 46.28 0 00-2.83 6.09 47.81 47.81 0 00-1.42 6.56 6 6 0 010-2 19.47 19.47 0 011-4.73 19.66 19.66 0 012.09-4.35 5.79 5.79 0 011.16-1.57zm5.48.62c.13.1-1.69 2.63-3.46 6s-2.84 6.32-3 6.27a7.19 7.19 0 01.54-2 35.84 35.84 0 014.59-8.75 7.23 7.23 0 011.33-1.52zm22.25-8.2c0 .1-1.87.35-4.73 1.42a27.85 27.85 0 00-16.36 16.21c-1.1 2.84-1.37 4.74-1.47 4.71a5.85 5.85 0 01.16-1.32 24.59 24.59 0 011-3.52 26.77 26.77 0 0116.59-16.43 23.57 23.57 0 013.53-.92 5.4 5.4 0 011.28-.15zM109 386.64a6.18 6.18 0 011.37 1.4 37.69 37.69 0 015.14 7.92 6.79 6.79 0 01.72 1.82c-.14.07-1.48-2.59-3.48-5.66s-3.85-5.38-3.75-5.48zm1.22-5.12a20.18 20.18 0 013.92 4.33 20.55 20.55 0 013 5c-.13.08-1.51-2.13-3.42-4.69s-3.61-4.54-3.5-4.64zm267.34-12a9 9 0 01-1.07 1.26c-.34.4-.72.93-1.19 1.51s-.9 1.32-1.44 2.1a61.91 61.91 0 00-6.23 13.34 53.25 53.25 0 00-2.87 14.43c-.15 3.77.31 6.09.19 6.11a10 10 0 01-.31-1.63c0-.27-.08-.56-.13-.87s0-.68-.06-1.06a21.11 21.11 0 01-.05-2.57 49.13 49.13 0 012.74-14.57 57 57 0 016.41-13.39c.56-.76 1-1.48 1.52-2.07s.9-1.08 1.27-1.47a13.33 13.33 0 011.22-1.12zm-6.75 25.4c.08 0-.42 1.28-1.08 3.34a57.24 57.24 0 00-2.84 16.56c-.05 2.15 0 3.49-.09 3.5a3.08 3.08 0 01-.15-.94c-.06-.6-.11-1.48-.13-2.57a46.71 46.71 0 012.86-16.67c.38-1 .72-1.83 1-2.38a3.82 3.82 0 01.43-.84zm4.94 3.08c.07 0-.49 1-1.25 2.63a34.89 34.89 0 00-3.3 13.52c-.08 1.79 0 2.91-.11 2.91s-.09-.27-.15-.78a21.14 21.14 0 01-.11-2.14 29.06 29.06 0 013.34-13.67 18.66 18.66 0 011.09-1.85c.29-.39.46-.62.49-.62zm7.33 5.87c.05.08-.81.52-2 1.45a18.35 18.35 0 00-4.09 4.33 18.64 18.64 0 00-2.45 5.42c-.39 1.48-.47 2.44-.56 2.43a7.12 7.12 0 01.2-2.52 16.16 16.16 0 016.68-10 7.25 7.25 0 012.22-1.11zM440.52 264s-.13.17-.42.45l-1.29 1.21c-.57.52-1.25 1.16-2 1.94s-1.67 1.63-2.58 2.66-2 2.1-3 3.35-2.09 2.59-3.2 4a97.15 97.15 0 00-6.41 9.88 95.12 95.12 0 00-5 10.65c-.63 1.69-1.26 3.3-1.73 4.84s-.94 3-1.3 4.29-.64 2.53-.9 3.59-.45 2-.6 2.73l-.35 1.73a3 3 0 01-.16.6 2.41 2.41 0 01.06-.62c.06-.45.15-1 .26-1.75s.26-1.69.5-2.76.46-2.29.84-3.62.72-2.79 1.23-4.32 1.08-3.18 1.7-4.89a93.18 93.18 0 015-10.72 91.63 91.63 0 016.48-9.92c1.13-1.43 2.18-2.8 3.26-4S433 271 434 270s1.86-1.85 2.65-2.61 1.49-1.38 2.08-1.88l1.35-1.14a2.23 2.23 0 01.44-.37z" fill="#263238"/><path d="M432.34 298c0 .08-1.57.35-4.09.94a26.3 26.3 0 00-4.25 1.36 14.36 14.36 0 00-4.5 3.08 24.75 24.75 0 00-5.08 8.57c-.47 1.21-.81 2.2-1.06 2.89a5.4 5.4 0 01-.43 1 4.31 4.31 0 01.24-1.11c.19-.7.48-1.71.9-2.94a23.34 23.34 0 015.06-8.82 14.36 14.36 0 014.68-3.15 23.65 23.65 0 014.4-1.33c1.28-.26 2.32-.41 3-.5a4.19 4.19 0 011.13.01zM417 285.73c.08 0-.83 1.55-2 4.1a52.55 52.55 0 00-3.57 10.39 52 52 0 00-1.24 10.91c0 2.83.16 4.57.06 4.58a6.7 6.7 0 01-.2-1.22 32.42 32.42 0 01-.23-3.35 45.54 45.54 0 014.85-21.47 29.57 29.57 0 011.65-2.93 5.62 5.62 0 01.68-1.01z" fill="#263238"/><path d="M427.8 354.73a8.76 8.76 0 014.17 5.49 15.55 15.55 0 01.09 7c-.85 4.49-3.76 8.87-6.8 12.28-3.57-3.61-4-9.48-4.05-12.47-.07-4.73 2.69-13.31 6.59-12.32m1.34 32.61a7.5 7.5 0 012.94-6.94 10 10 0 017.5-1.74 4.18 4.18 0 013.11 1.68 3.19 3.19 0 01-.19 3.25 6.59 6.59 0 01-2.57 2.19c-3.46 1.83-7.14 3-10.79 1.56" fill="#ff725e"/><path d="M423.22 400.84a4.46 4.46 0 01.2-.92l.65-2.48a26.39 26.39 0 013.19-7.84 16.23 16.23 0 016.22-5.7 11.25 11.25 0 012.43-.86 4.35 4.35 0 01.69-.12h.24a17.88 17.88 0 00-3.26 1.21 16.67 16.67 0 00-6 5.67 28.46 28.46 0 00-3.25 7.73c-.31 1-.56 1.87-.75 2.45a4.71 4.71 0 01-.36.86z" fill="#263238"/><path d="M426.28 361.45a1.85 1.85 0 010 .41v1.17c0 1-.07 2.49-.15 4.31-.15 3.64-.43 8.66-.86 14.2s-.94 10.54-1.36 14.15c-.21 1.81-.39 3.27-.53 4.28-.07.48-.12.86-.17 1.16s-.06.41-.08.4a2.4 2.4 0 010-.4c0-.31.06-.69.1-1.17.11-1.06.25-2.51.43-4.29.35-3.62.82-8.62 1.26-14.16s.75-10.55 1-14.18c.1-1.79.19-3.24.25-4.3 0-.48.06-.87.08-1.17a1.91 1.91 0 01.03-.41z" fill="#263238"/><path d="M422.33 389.59a17.56 17.56 0 00-8.61-13.54c-1.22-.7-2.86-1.22-4-.35s-1 2.59-.59 3.95A15 15 0 00422.22 390" fill="#ff725e"/><path d="M414 380.39a4.68 4.68 0 01.79.42 8.39 8.39 0 01.87.55 12.49 12.49 0 011.11.82 13.37 13.37 0 011.26 1.1 14.76 14.76 0 011.32 1.39 18 18 0 013.92 7.8 18.25 18.25 0 01.31 1.9 14.32 14.32 0 01.1 1.67 11.74 11.74 0 010 1.37 8.54 8.54 0 01-.1 1 5.24 5.24 0 01-.17.87c-.07 0 .15-1.26.08-3.28a14.68 14.68 0 00-.15-1.64 17.42 17.42 0 00-.33-1.86 19.68 19.68 0 00-1.48-4.06 20 20 0 00-2.37-3.61c-.44-.51-.85-1-1.28-1.4s-.83-.78-1.21-1.11c-1.58-1.26-2.67-1.87-2.67-1.93z" fill="#263238"/><path d="M37.66 288.66A5.83 5.83 0 0142 290.1a10.32 10.32 0 012.67 3.8 18.2 18.2 0 01.88 9.24c-3.3-.63-5.74-3.67-6.88-5.29-1.8-2.56-3.5-8.28-1-9.19M50.57 306a5 5 0 01-1-4.89 6.6 6.6 0 013.43-3.8 2.79 2.79 0 012.33-.25 2.15 2.15 0 011.11 1.85 4.38 4.38 0 01-.59 2.16c-1.21 2.29-2.79 4.28-5.31 4.88" fill="#ff725e"/><path d="M52.39 315.55s-.09-.21-.23-.58l-.57-1.6a17.41 17.41 0 01-1.19-5.47 10.72 10.72 0 011.26-5.44 7.72 7.72 0 011-1.38 3 3 0 01.33-.32c.08-.07.12-.11.12-.1a11 11 0 00-1.32 1.88 10.9 10.9 0 00-1.18 5.35 18.67 18.67 0 001.11 5.43c.22.68.4 1.24.51 1.62a2.87 2.87 0 01.16.61z" fill="#263238"/><path d="M39.34 292.9s.06.07.16.21.26.39.43.65c.37.56.9 1.39 1.53 2.41 1.28 2 3 4.88 4.84 8.07s3.42 6.11 4.55 8.24c.56 1.06 1 1.93 1.31 2.53.14.28.25.52.34.69s.11.25.11.25-.06-.07-.15-.22l-.38-.68-1.37-2.5c-1.16-2.11-2.77-5-4.6-8.2s-3.54-6-4.78-8.1l-1.47-2.44-.39-.67z" fill="#263238"/><path d="M47.71 309.73a11.65 11.65 0 00-9.71-4.17c-.94.08-2 .4-2.31 1.29s.42 1.8 1.15 2.38a9.92 9.92 0 0011 .75" fill="#ff725e"/><path d="M39.73 307.82a2.58 2.58 0 01.58-.07h1.6a9.34 9.34 0 011.1.13 10.59 10.59 0 011.24.26 11.89 11.89 0 015 2.8 10.68 10.68 0 01.88.92 9.48 9.48 0 01.68.87c.21.27.35.54.5.77a5.21 5.21 0 01.32.6 3 3 0 01.24.54s-.39-.74-1.18-1.82A9.72 9.72 0 0050 312a12 12 0 00-.87-.89 13.25 13.25 0 00-2.33-1.67 14 14 0 00-2.64-1.08c-.43-.11-.83-.22-1.22-.28a9.76 9.76 0 00-1.08-.16c-1.29-.14-2.13-.05-2.13-.1z" fill="#263238"/></svg>